<svg width="53" height="63" viewBox="0 0 53 63" fill="none" xmlns="http://www.w3.org/2000/svg">
<path d="M39.321 41.3232L52.7221 58.2329L52.2115 50.2229L48.5825 41.9615C50.3802 40.6918 51.1363 39.0041 50.2121 38.0836C49.4703 37.3483 48.2589 37.6667 47.1595 38.7186L44.2631 32.1396C46.0957 30.8592 46.87 29.156 45.9345 28.2165C45.1857 27.4723 43.9524 27.8086 42.8375 28.8926L40.1756 22.8478C50.0778 13.1482 55.261 4.17188 52.0486 0.946519C52.0055 0.902081 51.9551 0.865271 51.906 0.823486L0.288058 52.4395C0.267829 52.5632 0.269482 52.6497 0.310272 52.6928C0.485368 52.8689 1.43779 52.4206 2.99608 51.4708L9.74857 63L10.4655 46.4215C15.8269 42.5973 22.8523 37.3301 30.4488 31.3636C30.6557 31.2037 30.8464 31.0422 31.044 30.8754L39.321 41.3232Z" fill="#F6C90E"/>
</svg>
