<svg width="56" height="64" viewBox="0 0 56 64" fill="none" xmlns="http://www.w3.org/2000/svg">
<path fill-rule="evenodd" clip-rule="evenodd" d="M27.7751 13.5163C32.7637 17.4341 37.2736 19.2905 41.1392 18.8472C41.8148 35.7762 36.768 45.7729 27.8243 49.9733C19.1893 46.0943 14.0799 36.5021 14.4602 18.62C19.0014 18.9137 23.4576 17.7001 27.7751 13.5441V13.5163ZM34.1015 10.5794V13.0065C34.6205 13.2836 35.135 13.533 35.645 13.7657V11.5491H37.4347C37.6162 12.1691 37.9684 12.69 38.4293 13.0203C38.8902 13.3506 39.4303 13.469 39.9547 13.3549C40.4792 13.2408 40.9544 12.9013 41.2968 12.3962C41.6391 11.8912 41.8268 11.2528 41.8268 10.5933C41.8268 9.93375 41.6391 9.29535 41.2968 8.79027C40.9544 8.28519 40.4792 7.94575 39.9547 7.83161C39.4303 7.71747 38.8902 7.83595 38.4293 8.1662C37.9684 8.49646 37.6162 9.01737 37.4347 9.63736H34.871C34.7698 9.63663 34.6695 9.66078 34.5758 9.70842C34.4822 9.75605 34.3971 9.82623 34.3255 9.91488C34.254 10.0035 34.1973 10.1089 34.1588 10.2249C34.1204 10.3408 34.1009 10.4651 34.1015 10.5905V10.5794ZM0.277347 20.3157C0.276948 19.8102 0.386884 19.3139 0.595523 18.8795C0.804161 18.4451 1.10374 18.0886 1.46256 17.8477C1.82138 17.6069 2.2261 17.4906 2.63388 17.5113C3.04167 17.532 3.43735 17.6888 3.77907 17.9652C4.12078 18.2416 4.39582 18.6273 4.57508 19.0814C4.75433 19.5355 4.83113 20.0412 4.79736 20.5449C4.76359 21.0487 4.62049 21.5318 4.38322 21.9431C4.14595 22.3543 3.82332 22.6785 3.44948 22.8813V28.4837H11.655C11.7444 29.132 11.8384 29.7693 11.9413 30.3955H2.67993C2.47931 30.397 2.28624 30.3009 2.1423 30.1278C1.99836 29.9547 1.91508 29.7185 1.91039 29.4701V23.0088C1.43902 22.8403 1.02473 22.4864 0.730119 22.0006C0.435505 21.5147 0.276576 20.9233 0.277347 20.3157ZM6.50081 18.4537C6.50725 17.7625 6.72004 17.0987 7.09815 16.5902C7.47626 16.0818 7.99294 15.7646 8.54862 15.6999C9.1043 15.6352 9.65964 15.8276 10.1076 16.2399C10.5556 16.6521 10.8646 17.2552 10.9749 17.9328C10.9749 18.2598 10.9749 18.5867 10.9749 18.9137C10.9065 19.4075 10.7333 19.87 10.4731 20.2536C10.2128 20.6373 9.87493 20.9283 9.49397 21.097V23.3136H11.136C11.1762 23.9619 11.2254 24.5992 11.2791 25.2253H8.73785C8.53376 25.2253 8.33802 25.1249 8.1937 24.9462C8.04939 24.7674 7.96831 24.525 7.96831 24.2722V21.0748C7.53547 20.8784 7.16218 20.5212 6.8995 20.0521C6.63682 19.5829 6.49757 19.0247 6.50081 18.4537ZM0.313139 35.8371C0.31459 35.1792 0.50277 34.5429 0.844753 34.0395C1.18674 33.5361 1.66075 33.1977 2.18385 33.0835C2.70695 32.9692 3.24584 33.0864 3.70622 33.4145C4.1666 33.7427 4.51916 34.2609 4.70222 34.8785H12.8764C13.0419 35.5324 13.2209 36.1696 13.4043 36.7903H4.70222C4.5193 37.4074 4.16712 37.9253 3.70719 38.2535C3.24727 38.5817 2.70886 38.6993 2.18604 38.5858C1.66321 38.4723 1.18922 38.1348 0.846885 37.6324C0.504546 37.13 0.315628 36.4945 0.313139 35.8371ZM5.19885 47.5018C5.19876 46.9333 5.3382 46.3782 5.59869 45.91C5.85918 45.4419 6.2284 45.083 6.6574 44.8807V41.1957C6.65739 41.0696 6.67759 40.9447 6.71682 40.8284C6.75605 40.712 6.81354 40.6064 6.88595 40.5178C6.95836 40.4291 7.04425 40.3591 7.13865 40.3119C7.23305 40.2647 7.33408 40.2411 7.43589 40.2426H14.6168C14.8808 40.902 15.1626 41.5392 15.4579 42.1599H8.20096V44.853C8.59408 45.021 8.94225 45.3198 9.20728 45.7167C9.47231 46.1136 9.64395 46.5932 9.70339 47.103C9.76282 47.6127 9.70774 48.1329 9.54419 48.6064C9.38064 49.08 9.11495 49.4886 8.77625 49.7874C8.43756 50.0863 8.03895 50.2638 7.62416 50.3005C7.20938 50.3372 6.79444 50.2317 6.42486 49.9956C6.05529 49.7595 5.74537 49.4019 5.5291 48.962C5.31283 48.522 5.19857 48.0168 5.19885 47.5018ZM38.0387 63.4389C38.4467 63.4399 38.8474 63.3044 39.1983 63.0466C39.5492 62.7888 39.8374 62.4183 40.0323 61.9743C40.2272 61.5303 40.3216 61.0294 40.3055 60.5244C40.2894 60.0194 40.1635 59.5292 39.9409 59.1057C39.7184 58.6821 39.4076 58.3409 39.0413 58.1181C38.6751 57.8953 38.267 57.7993 37.8603 57.8402C37.4536 57.881 37.0634 58.0573 36.731 58.3502C36.3985 58.6432 36.1361 59.042 35.9716 59.5045H31.4483V52.5888C30.9472 52.9324 30.4327 53.2593 29.9048 53.5696V60.4632C29.9048 60.7159 29.9859 60.9584 30.1302 61.1371C30.2745 61.3159 30.4702 61.4163 30.6743 61.4163H35.8687C36.0045 61.9992 36.2896 62.5116 36.681 62.8764C37.0723 63.2412 37.5488 63.4386 38.0387 63.4389ZM39.5464 55.7308C39.9619 55.7314 40.3696 55.5905 40.7247 55.3233C41.0798 55.0561 41.3687 54.673 41.5597 54.216C41.7508 53.759 41.8366 53.2457 41.8078 52.7323C41.779 52.219 41.6366 51.7253 41.3963 51.3054C41.1561 50.8856 40.8272 50.5557 40.4456 50.352C40.0641 50.1482 39.6446 50.0785 39.2332 50.1504C38.8217 50.2222 38.4342 50.433 38.113 50.7595C37.7919 51.086 37.5494 51.5156 37.4123 52.0014H35.6227V48.9647C35.1245 49.5004 34.61 50.0102 34.0791 50.4942V52.9601C34.0785 53.0855 34.098 53.2097 34.1365 53.3257C34.1749 53.4417 34.2316 53.547 34.3032 53.6357C34.3748 53.7243 34.4598 53.7945 34.5535 53.8422C34.6471 53.8898 34.7474 53.9139 34.8486 53.9132H37.4123C37.5709 54.4493 37.8593 54.9116 38.2381 55.237C38.6169 55.5623 39.0676 55.7348 39.5285 55.7308H39.5464ZM25.5112 63.389C26.0435 63.391 26.5593 63.1602 26.9676 62.7372C27.3759 62.3143 27.6506 61.7263 27.7431 61.0771C27.8357 60.4278 27.7402 59.759 27.4734 59.1884C27.2067 58.6179 26.7859 58.1823 26.2852 57.9584V53.891C25.7797 53.6084 25.2428 53.2981 24.7417 52.9823V57.9695C24.2414 58.1932 23.8208 58.6283 23.5541 59.1983C23.2873 59.7683 23.1915 60.4366 23.2834 61.0854C23.3754 61.7343 23.6492 62.3222 24.0567 62.7456C24.4642 63.169 24.9793 63.4008 25.5112 63.4001V63.389ZM16.1156 57.3433C16.5729 57.3362 17.0178 57.1576 17.3915 56.8312C17.7653 56.5047 18.0505 56.0458 18.2095 55.5147H21.1848C21.3889 55.5118 21.584 55.4097 21.7279 55.2303C21.8718 55.051 21.9532 54.8089 21.9543 54.556V50.9042C21.4219 50.4443 20.9074 49.9733 20.4108 49.4191V53.6084H18.2319C18.0963 53.1215 17.855 52.6903 17.5346 52.362C17.2141 52.0338 16.8269 51.8212 16.4153 51.7476C16.0037 51.674 15.5837 51.7422 15.2014 51.9448C14.819 52.1473 14.4891 52.4764 14.2479 52.8959C14.0066 53.3154 13.8633 53.8091 13.8336 54.3228C13.8039 54.8366 13.8891 55.3505 14.0798 55.8082C14.2704 56.266 14.5592 56.6498 14.9143 56.9177C15.2695 57.1855 15.6774 57.3271 16.0933 57.3267L16.1156 57.3433ZM55.2773 20.3157C55.2777 19.8102 55.1678 19.3139 54.9592 18.8795C54.7505 18.4451 54.451 18.0886 54.0921 17.8477C53.7333 17.6069 53.3286 17.4906 52.9208 17.5113C52.513 17.532 52.1173 17.6888 51.7756 17.9652C51.4339 18.2416 51.1589 18.6273 50.9796 19.0814C50.8004 19.5355 50.7236 20.0412 50.7573 20.5449C50.7911 21.0487 50.9342 21.5318 51.1715 21.9431C51.4087 22.3543 51.7314 22.6785 52.1052 22.8813V28.4837H44.1234C44.0429 29.132 43.9489 29.7693 43.846 30.3955H52.8748C53.0715 30.3898 53.2589 30.2905 53.398 30.1182C53.5372 29.9458 53.6174 29.7137 53.6219 29.4701V23.0088C54.0933 22.8403 54.5076 22.4864 54.8022 22.0006C55.0968 21.5147 55.2557 20.9233 55.255 20.3157H55.2773ZM49.0449 18.4537C49.0474 17.7927 48.8609 17.1518 48.5183 16.6448C48.1758 16.1378 47.6994 15.7974 47.1735 15.6839C46.6477 15.5704 46.1064 15.6911 45.6456 16.0246C45.1847 16.3582 44.8341 16.883 44.6559 17.5062C44.4904 18.1383 44.4904 18.819 44.6559 19.4512C44.7701 19.8314 44.9492 20.1766 45.1808 20.4635C45.4124 20.7503 45.6911 20.9721 45.9981 21.1136V23.3302H44.5708C44.5351 23.9785 44.4948 24.6158 44.4456 25.242H46.8079C47.012 25.242 47.2077 25.1415 47.352 24.9628C47.4964 24.7841 47.5774 24.5416 47.5774 24.2888V21.0748C48.0103 20.8784 48.3836 20.5212 48.6462 20.0521C48.9089 19.5829 49.0482 19.0247 49.0449 18.4537ZM55.2192 35.8371C55.215 35.1819 55.0256 34.5492 54.6839 34.0488C54.3423 33.5485 53.8699 33.2122 53.3489 33.0983C52.8279 32.9844 52.2912 33.1001 51.8318 33.4253C51.3725 33.7505 51.0197 34.2646 50.8346 34.8785H42.8931C42.723 35.5324 42.5441 36.1696 42.3517 36.7903H50.8346C51.0175 37.4074 51.3697 37.9253 51.8296 38.2535C52.2895 38.5817 52.8279 38.6993 53.3508 38.5858C53.8736 38.4723 54.3476 38.1348 54.6899 37.6324C55.0322 37.13 55.2212 36.4945 55.2237 35.8371H55.2192ZM50.3335 47.5018C50.3336 46.9333 50.1941 46.3782 49.9336 45.91C49.6731 45.4419 49.3039 45.083 48.8749 44.8807V41.1957C48.8749 41.07 48.8549 40.9456 48.8159 40.8296C48.777 40.7136 48.7199 40.6083 48.6479 40.5197C48.576 40.4312 48.4907 40.3611 48.3968 40.3135C48.3029 40.2659 48.2023 40.2418 48.1009 40.2426H41.1168C40.8439 40.902 40.5531 41.5392 40.2533 42.1599H47.3314V44.853C46.9382 45.021 46.5901 45.3198 46.325 45.7167C46.06 46.1136 45.8884 46.5932 45.8289 47.103C45.7695 47.6127 45.8246 48.1329 45.9881 48.6064C46.1517 49.08 46.4174 49.4886 46.7561 49.7874C47.0948 50.0863 47.4934 50.2638 47.9082 50.3005C48.3229 50.3372 48.7379 50.2317 49.1075 49.9956C49.477 49.7595 49.7869 49.4019 50.0032 48.962C50.2195 48.522 50.3338 48.0168 50.3335 47.5018ZM38.0387 0.100598C38.447 0.0991056 38.848 0.234414 39.1993 0.492192C39.5506 0.74997 39.8391 1.12062 40.0341 1.56489C40.2292 2.00916 40.3237 2.5105 40.3075 3.01582C40.2913 3.52115 40.165 4.01163 39.9421 4.43534C39.7192 4.85904 39.4079 5.20019 39.0412 5.42264C38.6745 5.6451 38.2661 5.74059 37.8591 5.69899C37.4522 5.65739 37.0619 5.48026 36.7296 5.18635C36.3974 4.89244 36.1355 4.49269 35.9716 4.02946H31.4483V11.4494C30.9383 11.1169 30.4238 10.7733 29.9048 10.4076V3.07633C29.9042 2.95096 29.9237 2.82669 29.9621 2.71072C30.0006 2.59475 30.0573 2.48939 30.1288 2.40074C30.2004 2.31208 30.2855 2.2419 30.3791 2.19427C30.4728 2.14663 30.5731 2.12248 30.6743 2.12321H35.8687C36.0045 1.54031 36.2896 1.02786 36.681 0.663049C37.0723 0.298243 37.5488 0.100846 38.0387 0.100598ZM25.5112 0.144929C26.0424 0.146727 26.5561 0.379797 26.9626 0.803362C27.369 1.22693 27.6423 1.81401 27.7345 2.46191C27.8268 3.1098 27.7321 3.77724 27.4672 4.34745C27.2023 4.91765 26.7839 5.35432 26.2852 5.58105V10.1361C25.7692 10.5683 25.2547 10.9673 24.7417 11.333V5.58105C24.2434 5.3545 23.8252 4.91829 23.5602 4.34865C23.2952 3.77901 23.2003 3.11216 23.292 2.46462C23.3836 1.81707 23.6561 1.23001 24.0617 0.806003C24.4674 0.381997 24.9804 0.148012 25.5112 0.144929ZM16.0933 6.19615C16.5523 6.19604 17.0005 6.36875 17.3784 6.69138C17.7564 7.01401 18.0462 7.47131 18.2095 8.00265H21.1848C21.3897 8.00556 21.5854 8.10843 21.7295 8.28894C21.8735 8.46945 21.9543 8.71304 21.9543 8.96685V13.0398C21.4398 13.3058 20.9253 13.5441 20.4063 13.7546V9.91443H18.2319C18.0963 10.4013 17.855 10.8326 17.5346 11.1608C17.2141 11.4891 16.8269 11.7017 16.4153 11.7753C16.0037 11.8489 15.5837 11.7807 15.2014 11.5781C14.819 11.3755 14.4891 11.0465 14.2479 10.627C14.0066 10.2075 13.8633 9.71377 13.8336 9.20004C13.8039 8.6863 13.8891 8.17237 14.0798 7.71464C14.2704 7.2569 14.5592 6.87305 14.9143 6.60518C15.2695 6.33732 15.6774 6.1958 16.0933 6.19615ZM22.8044 27.8797H23.301V26.7437C23.2988 25.2267 23.7701 23.7674 24.6164 22.6708C25.0254 22.1284 25.52 21.6961 26.0695 21.4004C26.619 21.1048 27.2118 20.9523 27.8109 20.9523C28.41 20.9523 29.0028 21.1048 29.5523 21.4004C30.1018 21.6961 30.5964 22.1284 31.0054 22.6708C31.8517 23.7674 32.323 25.2267 32.3208 26.7437V27.8797H32.8174C33.0128 27.8811 33.1999 27.9779 33.3381 28.1491C33.4763 28.3202 33.5545 28.552 33.5556 28.794V38.425C33.5545 38.6665 33.4762 38.8977 33.3378 39.0679C33.1995 39.2382 33.0124 39.3338 32.8174 39.3338H22.8133C22.6183 39.3338 22.4312 39.2382 22.2929 39.0679C22.1546 38.8977 22.0763 38.6665 22.0751 38.425V28.794C22.0763 28.552 22.1544 28.3202 22.2926 28.1491C22.4308 27.9779 22.6179 27.8811 22.8133 27.8797H22.8044ZM27.2069 34.0306L26.415 36.6074H29.2068L28.4641 33.9974C28.7561 33.8122 28.9887 33.5099 29.124 33.1398C29.2592 32.7698 29.2892 32.3538 29.2089 31.9599C29.1287 31.5661 28.9429 31.2175 28.682 30.9713C28.4212 30.7251 28.1006 30.5957 27.7727 30.6043C27.4447 30.6129 27.1289 30.759 26.8767 31.0187C26.6245 31.2784 26.4508 31.6364 26.3841 32.0341C26.3174 32.4319 26.3615 32.8459 26.5094 33.2085C26.6572 33.5711 26.8999 33.861 27.198 34.0306H27.2069ZM24.7059 27.8797H30.9338V26.7437C30.9376 25.672 30.6075 24.6399 30.0122 23.8622C29.7317 23.4896 29.3923 23.1926 29.0151 22.9895C28.638 22.7864 28.2311 22.6815 27.8198 22.6815C27.4086 22.6815 27.0017 22.7864 26.6246 22.9895C26.2474 23.1926 25.908 23.4896 25.6275 23.8622C25.0322 24.6399 24.7021 25.672 24.7059 26.7437V27.8797Z" fill="#F6C90E"/>
</svg>
