<svg width="59" height="69" viewBox="0 0 59 69" fill="none" xmlns="http://www.w3.org/2000/svg">
<path fill-rule="evenodd" clip-rule="evenodd" d="M29.7751 14.5163C34.7637 18.4341 39.2736 20.2905 43.1392 19.8472C43.8148 36.7762 38.768 46.7729 29.8243 50.9733C21.1893 47.0943 16.0799 37.5021 16.4602 19.62C21.0014 19.9137 25.4576 18.7001 29.7751 14.5441V14.5163ZM36.1015 11.5794V14.0065C36.6205 14.2836 37.135 14.533 37.645 14.7657V12.5491H39.4347C39.6162 13.1691 39.9684 13.69 40.4293 14.0203C40.8902 14.3506 41.4303 14.469 41.9547 14.3549C42.4792 14.2408 42.9544 13.9013 43.2968 13.3962C43.6391 12.8912 43.8268 12.2528 43.8268 11.5933C43.8268 10.9338 43.6391 10.2954 43.2968 9.79027C42.9544 9.28519 42.4792 8.94575 41.9547 8.83161C41.4303 8.71747 40.8902 8.83595 40.4293 9.1662C39.9684 9.49646 39.6162 10.0174 39.4347 10.6374H36.871C36.7698 10.6366 36.6695 10.6608 36.5758 10.7084C36.4822 10.7561 36.3971 10.8262 36.3255 10.9149C36.254 11.0035 36.1973 11.1089 36.1588 11.2249C36.1204 11.3408 36.1009 11.4651 36.1015 11.5905V11.5794ZM2.27735 21.3157C2.27695 20.8102 2.38688 20.3139 2.59552 19.8795C2.80416 19.4451 3.10374 19.0886 3.46256 18.8477C3.82138 18.6069 4.2261 18.4906 4.63388 18.5113C5.04167 18.532 5.43735 18.6888 5.77907 18.9652C6.12078 19.2416 6.39582 19.6273 6.57508 20.0814C6.75433 20.5355 6.83113 21.0412 6.79736 21.5449C6.76359 22.0487 6.62049 22.5318 6.38322 22.9431C6.14595 23.3543 5.82332 23.6785 5.44948 23.8813V29.4837H13.655C13.7444 30.132 13.8384 30.7693 13.9413 31.3955H4.67993C4.47931 31.397 4.28624 31.3009 4.1423 31.1278C3.99836 30.9547 3.91508 30.7185 3.91039 30.4701V24.0088C3.43902 23.8403 3.02473 23.4864 2.73012 23.0006C2.4355 22.5147 2.27658 21.9233 2.27735 21.3157ZM8.50081 19.4537C8.50725 18.7625 8.72004 18.0987 9.09815 17.5902C9.47626 17.0818 9.99294 16.7646 10.5486 16.6999C11.1043 16.6352 11.6596 16.8276 12.1076 17.2399C12.5556 17.6521 12.8646 18.2552 12.9749 18.9328C12.9749 19.2598 12.9749 19.5867 12.9749 19.9137C12.9065 20.4075 12.7333 20.87 12.4731 21.2536C12.2128 21.6373 11.8749 21.9283 11.494 22.097V24.3136H13.136C13.1762 24.9619 13.2254 25.5992 13.2791 26.2253H10.7379C10.5338 26.2253 10.338 26.1249 10.1937 25.9462C10.0494 25.7674 9.96831 25.525 9.96831 25.2722V22.0748C9.53547 21.8784 9.16218 21.5212 8.8995 21.0521C8.63682 20.5829 8.49757 20.0247 8.50081 19.4537ZM2.31314 36.8371C2.31459 36.1792 2.50277 35.5429 2.84475 35.0395C3.18674 34.5361 3.66075 34.1977 4.18385 34.0835C4.70695 33.9692 5.24584 34.0864 5.70622 34.4145C6.1666 34.7427 6.51916 35.2609 6.70222 35.8785H14.8764C15.0419 36.5324 15.2209 37.1696 15.4043 37.7903H6.70222C6.5193 38.4074 6.16712 38.9253 5.70719 39.2535C5.24727 39.5817 4.70886 39.6993 4.18604 39.5858C3.66321 39.4723 3.18922 39.1348 2.84688 38.6324C2.50455 38.13 2.31563 37.4945 2.31314 36.8371ZM7.19885 48.5018C7.19876 47.9333 7.3382 47.3782 7.59869 46.91C7.85918 46.4419 8.2284 46.083 8.6574 45.8807V42.1957C8.65739 42.0696 8.67759 41.9447 8.71682 41.8284C8.75605 41.712 8.81354 41.6064 8.88595 41.5178C8.95836 41.4291 9.04425 41.3591 9.13865 41.3119C9.23305 41.2647 9.33408 41.2411 9.43589 41.2426H16.6168C16.8808 41.902 17.1626 42.5392 17.4579 43.1599H10.201V45.853C10.5941 46.021 10.9422 46.3198 11.2073 46.7167C11.4723 47.1136 11.644 47.5932 11.7034 48.103C11.7628 48.6127 11.7077 49.1329 11.5442 49.6064C11.3806 50.08 11.1149 50.4886 10.7763 50.7874C10.4376 51.0863 10.039 51.2638 9.62416 51.3005C9.20938 51.3372 8.79444 51.2317 8.42486 50.9956C8.05529 50.7595 7.74537 50.4019 7.5291 49.962C7.31283 49.522 7.19857 49.0168 7.19885 48.5018ZM40.0387 64.4389C40.4467 64.4399 40.8474 64.3044 41.1983 64.0466C41.5492 63.7888 41.8374 63.4183 42.0323 62.9743C42.2272 62.5303 42.3216 62.0294 42.3055 61.5244C42.2894 61.0194 42.1635 60.5292 41.9409 60.1057C41.7184 59.6821 41.4076 59.3409 41.0413 59.1181C40.6751 58.8953 40.267 58.7993 39.8603 58.8402C39.4536 58.881 39.0634 59.0573 38.731 59.3502C38.3985 59.6432 38.1361 60.042 37.9716 60.5045H33.4483V53.5888C32.9472 53.9324 32.4327 54.2593 31.9048 54.5696V61.4632C31.9048 61.7159 31.9859 61.9584 32.1302 62.1371C32.2745 62.3159 32.4702 62.4163 32.6743 62.4163H37.8687C38.0045 62.9992 38.2896 63.5116 38.681 63.8764C39.0723 64.2412 39.5488 64.4386 40.0387 64.4389ZM41.5464 56.7308C41.9619 56.7314 42.3696 56.5905 42.7247 56.3233C43.0798 56.0561 43.3687 55.673 43.5597 55.216C43.7508 54.759 43.8366 54.2457 43.8078 53.7323C43.779 53.219 43.6366 52.7253 43.3963 52.3054C43.1561 51.8856 42.8272 51.5557 42.4456 51.352C42.0641 51.1482 41.6446 51.0785 41.2332 51.1504C40.8217 51.2222 40.4342 51.433 40.113 51.7595C39.7919 52.086 39.5494 52.5156 39.4123 53.0014H37.6227V49.9647C37.1245 50.5004 36.61 51.0102 36.0791 51.4942V53.9601C36.0785 54.0855 36.098 54.2097 36.1365 54.3257C36.1749 54.4417 36.2316 54.547 36.3032 54.6357C36.3748 54.7243 36.4598 54.7945 36.5535 54.8422C36.6471 54.8898 36.7474 54.9139 36.8486 54.9132H39.4123C39.5709 55.4493 39.8593 55.9116 40.2381 56.237C40.6169 56.5623 41.0676 56.7348 41.5285 56.7308H41.5464ZM27.5112 64.389C28.0435 64.391 28.5593 64.1602 28.9676 63.7372C29.3759 63.3143 29.6506 62.7263 29.7431 62.0771C29.8357 61.4278 29.7402 60.759 29.4734 60.1884C29.2067 59.6179 28.7859 59.1823 28.2852 58.9584V54.891C27.7797 54.6084 27.2428 54.2981 26.7417 53.9823V58.9695C26.2414 59.1932 25.8208 59.6283 25.5541 60.1983C25.2873 60.7683 25.1915 61.4366 25.2834 62.0854C25.3754 62.7343 25.6492 63.3222 26.0567 63.7456C26.4642 64.169 26.9793 64.4008 27.5112 64.4001V64.389ZM18.1156 58.3433C18.5729 58.3362 19.0178 58.1576 19.3915 57.8312C19.7653 57.5047 20.0505 57.0458 20.2095 56.5147H23.1848C23.3889 56.5118 23.584 56.4097 23.7279 56.2303C23.8718 56.051 23.9532 55.8089 23.9543 55.556V51.9042C23.4219 51.4443 22.9074 50.9733 22.4108 50.4191V54.6084H20.2319C20.0963 54.1215 19.855 53.6903 19.5346 53.362C19.2141 53.0338 18.8269 52.8212 18.4153 52.7476C18.0037 52.674 17.5837 52.7422 17.2014 52.9448C16.819 53.1473 16.4891 53.4764 16.2479 53.8959C16.0066 54.3154 15.8633 54.8091 15.8336 55.3228C15.8039 55.8366 15.8891 56.3505 16.0798 56.8082C16.2704 57.266 16.5592 57.6498 16.9143 57.9177C17.2695 58.1855 17.6774 58.3271 18.0933 58.3267L18.1156 58.3433ZM57.2773 21.3157C57.2777 20.8102 57.1678 20.3139 56.9592 19.8795C56.7505 19.4451 56.451 19.0886 56.0921 18.8477C55.7333 18.6069 55.3286 18.4906 54.9208 18.5113C54.513 18.532 54.1173 18.6888 53.7756 18.9652C53.4339 19.2416 53.1589 19.6273 52.9796 20.0814C52.8004 20.5355 52.7236 21.0412 52.7573 21.5449C52.7911 22.0487 52.9342 22.5318 53.1715 22.9431C53.4087 23.3543 53.7314 23.6785 54.1052 23.8813V29.4837H46.1234C46.0429 30.132 45.9489 30.7693 45.846 31.3955H54.8748C55.0715 31.3898 55.2589 31.2905 55.398 31.1182C55.5372 30.9458 55.6174 30.7137 55.6219 30.4701V24.0088C56.0933 23.8403 56.5076 23.4864 56.8022 23.0006C57.0968 22.5147 57.2557 21.9233 57.255 21.3157H57.2773ZM51.0449 19.4537C51.0474 18.7927 50.8609 18.1518 50.5183 17.6448C50.1758 17.1378 49.6994 16.7974 49.1735 16.6839C48.6477 16.5704 48.1064 16.6911 47.6456 17.0246C47.1847 17.3582 46.8341 17.883 46.6559 18.5062C46.4904 19.1383 46.4904 19.819 46.6559 20.4512C46.7701 20.8314 46.9492 21.1766 47.1808 21.4635C47.4124 21.7503 47.6911 21.9721 47.9981 22.1136V24.3302H46.5708C46.5351 24.9785 46.4948 25.6158 46.4456 26.242H48.8079C49.012 26.242 49.2077 26.1415 49.352 25.9628C49.4964 25.7841 49.5774 25.5416 49.5774 25.2888V22.0748C50.0103 21.8784 50.3836 21.5212 50.6462 21.0521C50.9089 20.5829 51.0482 20.0247 51.0449 19.4537ZM57.2192 36.8371C57.215 36.1819 57.0256 35.5492 56.6839 35.0488C56.3423 34.5485 55.8699 34.2122 55.3489 34.0983C54.8279 33.9844 54.2912 34.1001 53.8318 34.4253C53.3725 34.7505 53.0197 35.2646 52.8346 35.8785H44.8931C44.723 36.5324 44.5441 37.1696 44.3517 37.7903H52.8346C53.0175 38.4074 53.3697 38.9253 53.8296 39.2535C54.2895 39.5817 54.8279 39.6993 55.3508 39.5858C55.8736 39.4723 56.3476 39.1348 56.6899 38.6324C57.0322 38.13 57.2212 37.4945 57.2237 36.8371H57.2192ZM52.3335 48.5018C52.3336 47.9333 52.1941 47.3782 51.9336 46.91C51.6731 46.4419 51.3039 46.083 50.8749 45.8807V42.1957C50.8749 42.07 50.8549 41.9456 50.8159 41.8296C50.777 41.7136 50.7199 41.6083 50.6479 41.5197C50.576 41.4312 50.4907 41.3611 50.3968 41.3135C50.3029 41.2659 50.2023 41.2418 50.1009 41.2426H43.1168C42.8439 41.902 42.5531 42.5392 42.2533 43.1599H49.3314V45.853C48.9382 46.021 48.5901 46.3198 48.325 46.7167C48.06 47.1136 47.8884 47.5932 47.8289 48.103C47.7695 48.6127 47.8246 49.1329 47.9881 49.6064C48.1517 50.08 48.4174 50.4886 48.7561 50.7874C49.0948 51.0863 49.4934 51.2638 49.9082 51.3005C50.3229 51.3372 50.7379 51.2317 51.1075 50.9956C51.477 50.7595 51.7869 50.4019 52.0032 49.962C52.2195 49.522 52.3338 49.0168 52.3335 48.5018ZM40.0387 1.1006C40.447 1.09911 40.848 1.23441 41.1993 1.49219C41.5506 1.74997 41.8391 2.12062 42.0341 2.56489C42.2292 3.00916 42.3237 3.5105 42.3075 4.01582C42.2913 4.52115 42.165 5.01163 41.9421 5.43534C41.7192 5.85904 41.4079 6.20019 41.0412 6.42264C40.6745 6.6451 40.2661 6.74059 39.8591 6.69899C39.4522 6.65739 39.0619 6.48026 38.7296 6.18635C38.3974 5.89244 38.1355 5.49269 37.9716 5.02946H33.4483V12.4494C32.9383 12.1169 32.4238 11.7733 31.9048 11.4076V4.07633C31.9042 3.95096 31.9237 3.82669 31.9621 3.71072C32.0006 3.59475 32.0573 3.48939 32.1288 3.40074C32.2004 3.31208 32.2855 3.2419 32.3791 3.19427C32.4728 3.14663 32.5731 3.12248 32.6743 3.12321H37.8687C38.0045 2.54031 38.2896 2.02786 38.681 1.66305C39.0723 1.29824 39.5488 1.10085 40.0387 1.1006ZM27.5112 1.14493C28.0424 1.14673 28.5561 1.3798 28.9626 1.80336C29.369 2.22693 29.6423 2.81401 29.7345 3.46191C29.8268 4.1098 29.7321 4.77724 29.4672 5.34745C29.2023 5.91765 28.7839 6.35432 28.2852 6.58105V11.1361C27.7692 11.5683 27.2547 11.9673 26.7417 12.333V6.58105C26.2434 6.3545 25.8252 5.91829 25.5602 5.34865C25.2952 4.77901 25.2003 4.11216 25.292 3.46462C25.3836 2.81707 25.6561 2.23001 26.0617 1.806C26.4674 1.382 26.9804 1.14801 27.5112 1.14493ZM18.0933 7.19615C18.5523 7.19604 19.0005 7.36875 19.3784 7.69138C19.7564 8.01401 20.0462 8.47131 20.2095 9.00265H23.1848C23.3897 9.00556 23.5854 9.10843 23.7295 9.28894C23.8735 9.46945 23.9543 9.71304 23.9543 9.96685V14.0398C23.4398 14.3058 22.9253 14.5441 22.4063 14.7546V10.9144H20.2319C20.0963 11.4013 19.855 11.8326 19.5346 12.1608C19.2141 12.4891 18.8269 12.7017 18.4153 12.7753C18.0037 12.8489 17.5837 12.7807 17.2014 12.5781C16.819 12.3755 16.4891 12.0465 16.2479 11.627C16.0066 11.2075 15.8633 10.7138 15.8336 10.2C15.8039 9.6863 15.8891 9.17237 16.0798 8.71464C16.2704 8.2569 16.5592 7.87305 16.9143 7.60518C17.2695 7.33732 17.6774 7.1958 18.0933 7.19615ZM24.8044 28.8797H25.301V27.7437C25.2988 26.2267 25.7701 24.7674 26.6164 23.6708C27.0254 23.1284 27.52 22.6961 28.0695 22.4004C28.619 22.1048 29.2118 21.9523 29.8109 21.9523C30.41 21.9523 31.0028 22.1048 31.5523 22.4004C32.1018 22.6961 32.5964 23.1284 33.0054 23.6708C33.8517 24.7674 34.323 26.2267 34.3208 27.7437V28.8797H34.8174C35.0128 28.8811 35.1999 28.9779 35.3381 29.1491C35.4763 29.3202 35.5545 29.552 35.5556 29.794V39.425C35.5545 39.6665 35.4762 39.8977 35.3378 40.0679C35.1995 40.2382 35.0124 40.3338 34.8174 40.3338H24.8133C24.6183 40.3338 24.4312 40.2382 24.2929 40.0679C24.1546 39.8977 24.0763 39.6665 24.0751 39.425V29.794C24.0763 29.552 24.1544 29.3202 24.2926 29.1491C24.4308 28.9779 24.6179 28.8811 24.8133 28.8797H24.8044ZM29.2069 35.0306L28.415 37.6074H31.2068L30.4641 34.9974C30.7561 34.8122 30.9887 34.5099 31.124 34.1398C31.2592 33.7698 31.2892 33.3538 31.2089 32.9599C31.1287 32.5661 30.9429 32.2175 30.682 31.9713C30.4212 31.7251 30.1006 31.5957 29.7727 31.6043C29.4447 31.6129 29.1289 31.759 28.8767 32.0187C28.6245 32.2784 28.4508 32.6364 28.3841 33.0341C28.3174 33.4319 28.3615 33.8459 28.5094 34.2085C28.6572 34.5711 28.8999 34.861 29.198 35.0306H29.2069ZM26.7059 28.8797H32.9338V27.7437C32.9376 26.672 32.6075 25.6399 32.0122 24.8622C31.7317 24.4896 31.3923 24.1926 31.0151 23.9895C30.638 23.7864 30.2311 23.6815 29.8198 23.6815C29.4086 23.6815 29.0017 23.7864 28.6246 23.9895C28.2474 24.1926 27.908 24.4896 27.6275 24.8622C27.0322 25.6399 26.7021 26.672 26.7059 27.7437V28.8797Z" fill="#F6C90E"/>
<line y1="-1" x2="87.9659" y2="-1" transform="matrix(-0.647978 0.761659 -0.766226 -0.642571 57 0)" stroke="#F6C90E" stroke-width="2"/>
</svg>
