<svg width="55" height="67" viewBox="0 0 55 67" fill="none" xmlns="http://www.w3.org/2000/svg">
<path fill-rule="evenodd" clip-rule="evenodd" d="M27.4978 14.1913C32.4864 18.3356 36.9963 20.2993 40.8619 19.8304C41.5375 37.7381 36.4907 48.3127 27.547 52.7559C18.912 48.6527 13.8026 38.506 14.1829 19.59C18.7241 19.9007 23.1803 18.617 27.4978 14.2207V14.1913ZM33.8241 11.0846V13.6521C34.3431 13.9452 34.8576 14.2089 35.3677 14.4551V12.1104H37.1573C37.3389 12.7663 37.691 13.3173 38.1519 13.6666C38.6128 14.016 39.153 14.1413 39.6774 14.0206C40.2018 13.8998 40.677 13.5408 41.0194 13.0065C41.3618 12.4722 41.5495 11.7969 41.5495 11.0993C41.5495 10.4016 41.3618 9.72633 41.0194 9.19205C40.677 8.65777 40.2018 8.29871 39.6774 8.17797C39.153 8.05723 38.6128 8.18255 38.1519 8.5319C37.691 8.88125 37.3389 9.43227 37.1573 10.0881H34.5937C34.4924 10.0873 34.3921 10.1129 34.2985 10.1633C34.2048 10.2137 34.1198 10.2879 34.0482 10.3817C33.9766 10.4755 33.92 10.5869 33.8815 10.7096C33.843 10.8323 33.8235 10.9637 33.8241 11.0963V11.0846ZM2.79228e-06 21.3837C-0.000395841 20.849 0.109541 20.3241 0.318179 19.8646C0.526817 19.405 0.826397 19.0279 1.18522 18.7731C1.54404 18.5183 1.94875 18.3954 2.35654 18.4173C2.76432 18.4392 3.16001 18.6051 3.50172 18.8974C3.84344 19.1898 4.11848 19.5977 4.29773 20.0781C4.47699 20.5585 4.55379 21.0934 4.52002 21.6263C4.48624 22.1592 4.34315 22.6702 4.10588 23.1052C3.8686 23.5403 3.54597 23.8832 3.17213 24.0977V30.024H11.3776C11.4671 30.7098 11.5611 31.3839 11.664 32.0463H2.40259C2.20197 32.0479 2.0089 31.9462 1.86496 31.7631C1.72102 31.58 1.63774 31.3301 1.63305 31.0674V24.2326C1.16168 24.0544 0.74739 23.68 0.452776 23.1661C0.158161 22.6521 -0.000768245 22.0265 2.79228e-06 21.3837ZM6.22346 19.4142C6.22991 18.683 6.44269 17.9808 6.8208 17.4429C7.19892 16.9051 7.7156 16.5696 8.27127 16.5012C8.82695 16.4327 9.3823 16.6362 9.83029 17.0723C10.2783 17.5084 10.5872 18.1464 10.6976 18.8632C10.6976 19.209 10.6976 19.5549 10.6976 19.9007C10.6291 20.4231 10.4559 20.9123 10.1957 21.3181C9.93549 21.724 9.59758 22.0318 9.21663 22.2102V24.5549H10.8586C10.8989 25.2408 10.9481 25.9149 11.0018 26.5773H8.46051C8.25641 26.5773 8.06068 26.471 7.91636 26.282C7.77204 26.0929 7.69096 25.8364 7.69096 25.569V22.1868C7.25812 21.9791 6.88483 21.6012 6.62215 21.1049C6.35947 20.6086 6.22023 20.0181 6.22346 19.4142ZM0.0357955 37.8025C0.0372466 37.1066 0.225426 36.4335 0.567409 35.901C0.909393 35.3685 1.3834 35.0105 1.90651 34.8897C2.42961 34.7688 2.96849 34.8928 3.42887 35.2399C3.88926 35.587 4.24182 36.1352 4.42488 36.7885H12.599C12.7646 37.4801 12.9435 38.1542 13.127 38.8108H4.42488C4.24196 39.4636 3.88977 40.0115 3.42985 40.3586C2.96993 40.7058 2.43152 40.8302 1.90869 40.7101C1.38587 40.59 0.91188 40.2331 0.569541 39.7016C0.227202 39.1701 0.0382841 38.498 0.0357955 37.8025ZM4.9215 50.1416C4.92141 49.5402 5.06086 48.953 5.32135 48.4578C5.58184 47.9626 5.95106 47.5829 6.38006 47.3689V43.4709C6.38005 43.3375 6.40025 43.2054 6.43948 43.0823C6.47871 42.9592 6.5362 42.8475 6.6086 42.7538C6.68101 42.66 6.76691 42.586 6.86131 42.536C6.95571 42.486 7.05674 42.4611 7.15855 42.4626H14.3395C14.6034 43.1602 14.8853 43.8343 15.1806 44.4908H7.92362V47.3396C8.31673 47.5173 8.6649 47.8334 8.92993 48.2532C9.19496 48.6731 9.36661 49.1804 9.42604 49.7197C9.48547 50.2589 9.43039 50.8092 9.26685 51.3101C9.1033 51.811 8.8376 52.2432 8.49891 52.5593C8.16022 52.8754 7.76161 53.0632 7.34682 53.1021C6.93203 53.1409 6.51709 53.0293 6.14752 52.7796C5.77795 52.5298 5.46803 52.1515 5.25176 51.6861C5.03548 51.2208 4.92122 50.6864 4.9215 50.1416ZM37.7613 67C38.1694 67.0011 38.57 66.8577 38.921 66.585C39.2719 66.3123 39.5601 65.9204 39.755 65.4508C39.9499 64.9811 40.0443 64.4512 40.0282 63.917C40.0121 63.3829 39.8861 62.8643 39.6636 62.4163C39.441 61.9682 39.1302 61.6072 38.764 61.3716C38.3977 61.136 37.9897 61.0344 37.583 61.0776C37.1763 61.1208 36.7861 61.3073 36.4536 61.6172C36.1212 61.9271 35.8588 62.3489 35.6943 62.8381H31.171V55.5227C30.6699 55.8861 30.1554 56.2319 29.6274 56.5602V63.8522C29.6274 64.1196 29.7085 64.3761 29.8528 64.5651C29.9971 64.7542 30.1929 64.8605 30.397 64.8605H35.5914C35.7272 65.4771 36.0122 66.0191 36.4036 66.405C36.795 66.7909 37.2715 66.9997 37.7613 67ZM39.2691 58.8463C39.6846 58.847 40.0922 58.6978 40.4473 58.4152C40.8025 58.1326 41.0914 57.7274 41.2824 57.244C41.4734 56.7605 41.5593 56.2176 41.5304 55.6745C41.5016 55.1314 41.3593 54.6092 41.119 54.1651C40.8787 53.721 40.5498 53.372 40.1683 53.1565C39.7867 52.941 39.3672 52.8672 38.9558 52.9432C38.5444 53.0193 38.1569 53.2422 37.8357 53.5876C37.5145 53.9329 37.2721 54.3874 37.135 54.9013H35.3453V51.6891C34.8472 52.2557 34.3327 52.795 33.8018 53.3069V55.9154C33.8012 56.048 33.8207 56.1795 33.8591 56.3021C33.8976 56.4248 33.9543 56.5363 34.0258 56.6301C34.0974 56.7238 34.1825 56.7981 34.2761 56.8485C34.3697 56.8988 34.4701 56.9244 34.5713 56.9236H37.135C37.2935 57.4907 37.5819 57.9798 37.9607 58.3239C38.3395 58.6681 38.7902 58.8505 39.2512 58.8463H39.2691ZM25.2339 66.9472C25.7662 66.9494 26.282 66.7052 26.6903 66.2578C27.0986 65.8104 27.3732 65.1885 27.4658 64.5017C27.5583 63.8149 27.4628 63.1074 27.1961 62.5038C26.9294 61.9003 26.5086 61.4395 26.0079 61.2027V56.9002C25.5023 56.6012 24.9654 56.273 24.4643 55.9388V61.2144C23.964 61.451 23.5435 61.9113 23.2767 62.5143C23.01 63.1172 22.9141 63.8241 23.0061 64.5105C23.098 65.1969 23.3719 65.8188 23.7794 66.2667C24.1869 66.7146 24.702 66.9597 25.2339 66.959V66.9472ZM15.8383 60.5521C16.2956 60.5445 16.7404 60.3556 17.1142 60.0103C17.4879 59.665 17.7731 59.1795 17.9322 58.6177H20.9074C21.1116 58.6146 21.3066 58.5066 21.4506 58.3169C21.5945 58.1272 21.6758 57.8711 21.677 57.6036V53.7407C21.1446 53.2542 20.63 52.7559 20.1334 52.1697V56.6012H17.9545C17.8189 56.0862 17.5777 55.63 17.2572 55.2828C16.9368 54.9356 16.5495 54.7107 16.1379 54.6328C15.7264 54.5549 15.3064 54.6271 14.924 54.8414C14.5417 55.0556 14.2118 55.4038 13.9705 55.8475C13.7292 56.2912 13.5859 56.8135 13.5563 57.3569C13.5266 57.9004 13.6118 58.444 13.8024 58.9282C13.9931 59.4124 14.2818 59.8184 14.637 60.1018C14.9922 60.3851 15.4001 60.5348 15.8159 60.5345L15.8383 60.5521ZM55 21.3837C55.0004 20.849 54.8905 20.3241 54.6818 19.8646C54.4732 19.405 54.1736 19.0279 53.8148 18.7731C53.456 18.5183 53.0513 18.3954 52.6435 18.4173C52.2357 18.4392 51.84 18.6051 51.4983 18.8974C51.1566 19.1898 50.8815 19.5977 50.7023 20.0781C50.523 20.5585 50.4462 21.0934 50.48 21.6263C50.5138 22.1592 50.6569 22.6702 50.8941 23.1052C51.1314 23.5403 51.454 23.8832 51.8279 24.0977V30.024H43.8461C43.7656 30.7098 43.6716 31.3839 43.5687 32.0463H52.5974C52.7941 32.0403 52.9816 31.9353 53.1207 31.753C53.2599 31.5707 53.34 31.3251 53.3446 31.0674V24.2326C53.816 24.0544 54.2302 23.68 54.5249 23.1661C54.8195 22.6521 54.9784 22.0265 54.9776 21.3837H55ZM48.7676 19.4142C48.7701 18.7149 48.5835 18.037 48.241 17.5007C47.8984 16.9644 47.422 16.6043 46.8962 16.4842C46.3704 16.3641 45.8291 16.4918 45.3682 16.8446C44.9074 17.1975 44.5568 17.7527 44.3785 18.4118C44.213 19.0805 44.213 19.8006 44.3785 20.4693C44.4928 20.8715 44.6718 21.2367 44.9034 21.5401C45.135 21.8435 45.4138 22.0781 45.7207 22.2278V24.5725H44.2935C44.2577 25.2584 44.2174 25.9325 44.1682 26.5948H46.5305C46.7346 26.5948 46.9304 26.4886 47.0747 26.2995C47.219 26.1105 47.3001 25.854 47.3001 25.5866V22.1868C47.7329 21.9791 48.1062 21.6012 48.3689 21.1049C48.6316 20.6086 48.7708 20.0181 48.7676 19.4142ZM54.9418 37.8025C54.9376 37.1094 54.7482 36.4401 54.4066 35.9109C54.0649 35.3816 53.5926 35.0259 53.0716 34.9054C52.5506 34.7849 52.0138 34.9072 51.5545 35.2512C51.0952 35.5952 50.7423 36.1391 50.5572 36.7885H42.6157C42.4457 37.4801 42.2667 38.1542 42.0744 38.8108H50.5572C50.7401 39.4636 51.0923 40.0115 51.5523 40.3586C52.0122 40.7058 52.5506 40.8302 53.0734 40.7101C53.5962 40.59 54.0702 40.2331 54.4126 39.7016C54.7549 39.1701 54.9438 38.498 54.9463 37.8025H54.9418ZM50.0561 50.1416C50.0562 49.5402 49.9168 48.953 49.6563 48.4578C49.3958 47.9626 49.0266 47.5829 48.5976 47.3689V43.4709C48.5976 43.338 48.5775 43.2064 48.5386 43.0837C48.4996 42.961 48.4425 42.8496 48.3706 42.7559C48.2987 42.6622 48.2133 42.588 48.1194 42.5377C48.0255 42.4874 47.925 42.4619 47.8236 42.4626H40.8395C40.5666 43.1602 40.2758 43.8343 39.976 44.4908H47.054V47.3396C46.6609 47.5173 46.3127 47.8334 46.0477 48.2532C45.7827 48.6731 45.611 49.1804 45.5516 49.7197C45.4922 50.2589 45.5472 50.8092 45.7108 51.3101C45.8743 51.811 46.14 52.2432 46.4787 52.5593C46.8174 52.8754 47.216 53.0632 47.6308 53.1021C48.0456 53.1409 48.4605 53.0293 48.8301 52.7796C49.1997 52.5298 49.5096 52.1515 49.7259 51.6861C49.9421 51.2208 50.0564 50.6864 50.0561 50.1416ZM37.7613 1.29217e-05C38.1696 -0.00156591 38.5707 0.141565 38.922 0.414245C39.2733 0.686926 39.5617 1.07901 39.7568 1.54896C39.9519 2.01891 40.0463 2.54924 40.0301 3.08377C40.0139 3.61831 39.8877 4.13715 39.6647 4.58535C39.4418 5.03355 39.1305 5.39442 38.7639 5.62974C38.3972 5.86505 37.9887 5.96606 37.5818 5.92206C37.1749 5.87805 36.7846 5.69068 36.4523 5.37978C36.12 5.06888 35.8581 4.64602 35.6943 4.156H31.171V12.0049C30.6609 11.6532 30.1464 11.2898 29.6274 10.9029V3.14778C29.6268 3.01516 29.6463 2.88371 29.6848 2.76103C29.7233 2.63836 29.7799 2.5269 29.8515 2.43313C29.9231 2.33935 30.0082 2.26511 30.1018 2.21472C30.1954 2.16433 30.2958 2.13878 30.397 2.13956H35.5914C35.7272 1.52296 36.0122 0.980877 36.4036 0.59498C36.795 0.209084 37.2715 0.000274901 37.7613 1.29217e-05ZM25.2339 0.046907C25.765 0.0488083 26.2788 0.295353 26.6852 0.743405C27.0917 1.19146 27.3649 1.81249 27.4572 2.49783C27.5494 3.18318 27.4548 3.8892 27.1899 4.49238C26.9249 5.09555 26.5065 5.55746 26.0079 5.7973V10.6157C25.4919 11.0729 24.9774 11.4949 24.4643 11.8818V5.7973C23.966 5.55765 23.5479 5.09622 23.2829 4.49365C23.0179 3.89108 22.9229 3.18568 23.0146 2.5007C23.1063 1.81572 23.3787 1.19472 23.7844 0.746198C24.19 0.29768 24.7031 0.0501675 25.2339 0.046907ZM15.8159 6.44796C16.2749 6.44784 16.7231 6.63054 17.1011 6.97182C17.479 7.3131 17.7689 7.79684 17.9322 8.35889H20.9074C21.1123 8.36198 21.3081 8.4708 21.4521 8.66174C21.5962 8.85268 21.677 9.11035 21.677 9.37884V13.6872C21.1625 13.9686 20.6479 14.2207 20.1289 14.4434V10.3812H17.9545C17.8189 10.8962 17.5777 11.3524 17.2572 11.6996C16.9368 12.0469 16.5495 12.2717 16.1379 12.3496C15.7264 12.4275 15.3064 12.3553 14.924 12.141C14.5417 11.9268 14.2118 11.5787 13.9705 11.1349C13.7292 10.6912 13.5859 10.1689 13.5563 9.62551C13.5266 9.08207 13.6118 8.53843 13.8024 8.05423C13.9931 7.57003 14.2818 7.16399 14.637 6.88064C14.9922 6.59729 15.4001 6.44759 15.8159 6.44796ZM22.5271 29.385H23.0237V28.1834C23.0215 26.5787 23.4928 25.035 24.3391 23.875C24.748 23.3013 25.2426 22.8439 25.7922 22.5312C26.3417 22.2185 26.9344 22.0572 27.5336 22.0572C28.1327 22.0572 28.7254 22.2185 29.275 22.5312C29.8245 22.8439 30.3191 23.3013 30.7281 23.875C31.5743 25.035 32.0456 26.5787 32.0434 28.1834V29.385H32.5401C32.7355 29.3866 32.9226 29.489 33.0608 29.67C33.199 29.8511 33.2771 30.0962 33.2783 30.3522V40.54C33.2771 40.7955 33.1988 41.04 33.0605 41.2201C32.9222 41.4002 32.7351 41.5013 32.5401 41.5013H22.536C22.341 41.5013 22.1539 41.4002 22.0156 41.2201C21.8773 41.04 21.799 40.7955 21.7978 40.54V30.3522C21.7989 30.0962 21.8771 29.8511 22.0153 29.67C22.1535 29.489 22.3406 29.3866 22.536 29.385H22.5271ZM26.9296 35.8916L26.1376 38.6173H28.9295L28.1868 35.8564C28.4787 35.6606 28.7113 35.3408 28.8466 34.9493C28.9819 34.5579 29.0118 34.1179 28.9316 33.7012C28.8513 33.2845 28.6656 32.9159 28.4047 32.6554C28.1438 32.3949 27.8232 32.2581 27.4953 32.2672C27.1674 32.2763 26.8515 32.4308 26.5993 32.7056C26.3471 32.9803 26.1735 33.3589 26.1068 33.7797C26.04 34.2004 26.0842 34.6383 26.232 35.0219C26.3798 35.4055 26.6226 35.7121 26.9206 35.8916H26.9296ZM24.4285 29.385H30.6565V28.1834C30.6603 27.0498 30.3301 25.9579 29.7348 25.1353C29.4543 24.7412 29.1149 24.427 28.7378 24.2121C28.3606 23.9973 27.9538 23.8864 27.5425 23.8864C27.1312 23.8864 26.7244 23.9973 26.3472 24.2121C25.9701 24.427 25.6307 24.7412 25.3502 25.1353C24.7549 25.9579 24.4247 27.0498 24.4285 28.1834V29.385Z" fill="#F6C90E"/>
</svg>
