<svg width="63" height="63" viewBox="0 0 63 63" fill="none" xmlns="http://www.w3.org/2000/svg">
<path d="M19.7471 63L12.9946 51.4708C11.4363 52.4206 10.4839 52.8686 10.3088 52.6928C10.1314 52.5108 10.5837 51.561 11.5292 50.0051L0 43.2526L16.5821 42.5369C20.4037 37.1696 25.6729 30.1515 31.6374 22.5477C31.8016 22.3388 31.9607 22.1518 32.1246 21.9488L4.76939 0.282961L12.7814 0.789017L21.0338 4.41563C22.3006 2.61459 23.9882 1.86845 24.9211 2.795C25.6443 3.53153 25.3276 4.74261 24.2767 5.84426L30.8604 8.74198C32.1408 6.90313 33.8404 6.12581 34.7875 7.07259C35.5263 7.8131 35.1921 9.04773 34.1067 10.163L40.1458 12.8233C49.8541 2.92201 58.8211 -2.26058 62.0458 0.947197C65.2586 4.17255 60.0753 13.1489 50.1728 22.8485L52.8347 28.8933C53.9496 27.8092 55.1829 27.4733 55.9317 28.2171C56.8672 29.1566 56.0929 30.8598 54.2603 32.1402L57.1567 38.7193C58.2561 37.6674 59.4675 37.349 60.2093 38.0842C61.1335 39.0048 60.3774 40.6924 58.5797 41.9622L62.2087 50.2236L62.7194 58.2336L41.0419 30.8761C40.8442 31.0429 40.6536 31.2041 40.4466 31.3642C32.8498 37.3311 25.8247 42.5979 20.4634 46.4222L19.7471 63Z" fill="white"/>
</svg>
