<svg width="110" height="76" viewBox="0 0 110 76" fill="none" xmlns="http://www.w3.org/2000/svg">
<path d="M21.3351 28.4275C18.6996 28.1084 16.1473 29.7388 15.3967 32.3786C14.5683 35.2935 16.2643 38.3377 19.1846 39.1672C22.1031 39.9963 25.1471 38.2988 25.9758 35.3842C26.6951 32.8538 25.5201 30.2382 23.2986 29.0419L23.4078 29.0729C23.4078 29.0729 23.569 28.1194 23.6836 27.4955L22.0156 26.8C21.7976 27.2519 21.4018 28.2569 21.3351 28.4275Z" fill="#324134"/>
<path d="M46.9265 29.359C48.1859 29.8446 77.1089 40.8254 80.094 41.9564C80.5052 41.0547 80.9785 40.2113 81.5002 39.4308C78.4447 38.4056 48.5623 28.3989 47.3917 28.0266C46.1636 27.6287 45.5993 28.8578 46.9265 29.359Z" fill="#324134"/>
<path d="M92.7162 33.9231C87.3028 32.3853 81.1755 37.1967 79.057 44.6489C78.7814 45.6187 78.5757 46.6058 78.4435 47.5907C72.5918 45.1769 18.6016 22.0843 12.8815 19.7589C6.91692 17.3403 1.49669 14.5553 1.02353 16.2197C0.550411 17.8842 12.1903 22.3617 22.0656 26.7093C22.0539 26.728 22.0457 26.7427 22.0346 26.7596C22.0283 26.7716 22.0217 26.786 22.0152 26.7994L23.6832 27.4948C23.6872 27.4734 23.6912 27.4499 23.6952 27.4294C33.2644 31.6521 43.1339 36.079 49.4328 38.9153C49.4304 38.9203 49.428 38.9261 49.4256 38.9314L51.2006 39.7209C51.2009 39.7199 51.2012 39.7187 51.2012 39.7175C51.418 39.8155 51.6282 39.9103 51.8331 40.0026C52.5654 40.3324 53.2198 40.6251 53.7785 40.8788C58.3209 42.9301 63.3283 45.8968 67.3224 48.4376L67.3101 48.4809L68.4763 49.2577L68.4958 49.1892C72.2605 51.6247 74.8825 53.5036 74.8825 53.5036C74.8825 53.5036 75.3037 54.5141 76.9702 56.6104C77.77 57.6156 79.4178 58.228 80.3986 58.5151L80.3931 58.5351L81.6704 58.9228L81.6857 58.8689L85.4676 59.9434L92.8522 33.9652C92.8068 33.9518 92.762 33.9362 92.7162 33.9231Z" fill="#324134"/>
<path d="M100.743 6.01434C100.743 6.01434 100.732 6.01101 100.727 6.0098C100.727 6.0098 100.722 6.00813 100.716 6.00668C100.517 5.94678 99.9071 5.83356 99.6254 6.698C99.3056 7.672 91.6312 30.4086 90.5668 33.7209C91.2805 33.7166 91.9919 33.8084 92.6918 34.0073C92.7378 34.0203 92.7817 34.0377 92.8271 34.0515L100.793 6.02912C100.774 6.02316 100.758 6.01836 100.743 6.01434Z" fill="#F6C90E"/>
<path d="M64.547 57.2122C64.6822 56.7365 64.7976 56.3303 64.7976 56.3303C64.8784 55.9492 64.6122 55.5505 64.1828 55.4288C63.7538 55.3072 63.3273 55.5086 63.2016 55.877L62.5175 58.284C62.4056 58.6771 62.6621 59.0891 63.1066 59.2155C63.5514 59.3419 63.9944 59.1336 64.1044 58.7467C64.1053 58.7435 64.2348 58.3112 64.3765 57.8125L64.3993 57.8189L64.5698 57.2189L64.547 57.2122Z" fill="#324134"/>
<path d="M66.3737 57.7314L66.0917 57.6513L68.4773 49.2584L67.3112 48.4816L64.808 57.2864L64.5696 57.2188L64.3991 57.8188L66.203 58.3313L66.3737 57.7314Z" fill="#888A8D"/>
<path d="M67.6314 56.4087C67.2021 56.2867 66.7663 56.4856 66.6402 56.854C66.6402 56.854 66.5247 57.2598 66.3895 57.7358L66.3732 57.7314L66.2024 58.3312L66.2188 58.3361C66.0769 58.8349 65.9535 59.2685 65.9528 59.2717C65.8428 59.6588 66.1102 60.0689 66.5552 60.195C66.9997 60.3214 67.4342 60.1056 67.5459 59.7126L68.2359 57.3072C68.3209 56.9273 68.061 56.5307 67.6314 56.4087Z" fill="#324134"/>
<path d="M79.2907 61.4015C79.426 60.926 79.5415 60.52 79.5415 60.52C79.6303 60.1407 79.3543 59.7396 78.9308 59.6193C78.5017 59.4977 78.0774 59.6997 77.9496 60.0675L77.2654 62.4743C77.1537 62.8673 77.4098 63.2794 77.8546 63.406C78.2937 63.5305 78.7443 63.3247 78.8543 62.9376C78.8552 62.9346 78.9787 62.5007 79.1205 62.0018L79.1658 62.0147L79.3363 61.4146L79.2907 61.4015Z" fill="#324134"/>
<path d="M81.1032 61.9163L80.8401 61.8416L81.6697 58.9231L80.3925 58.5354L79.5562 61.4768L79.3364 61.4144L79.1659 62.0144L80.9325 62.5164L81.1032 61.9163Z" fill="#888A8D"/>
<path d="M82.3815 60.5995C81.9524 60.4777 81.5161 60.6765 81.3902 61.0449C81.3902 61.0449 81.2748 61.4509 81.1395 61.9266L81.1041 61.9168L80.9334 62.5169L80.9688 62.5267C80.827 63.0257 80.7036 63.4598 80.7029 63.4627C80.5928 63.8498 80.86 64.2598 81.305 64.3858C81.7495 64.5125 82.1843 64.2966 82.2959 63.9034L82.986 61.498C83.0673 61.1172 82.8104 60.7216 82.3815 60.5995Z" fill="#324134"/>
<path d="M48.9545 40.0831C46.3174 39.7692 43.7667 41.3995 43.0177 44.0344C42.1868 46.9571 43.8839 49.9991 46.8062 50.8297C49.7265 51.6594 52.7643 49.9624 53.5951 47.0398C54.3137 44.512 53.1411 41.8942 50.917 40.7002L51.0267 40.7372C51.0267 40.7372 51.1125 40.2345 51.2017 39.7214L49.4266 38.9319C49.2262 39.4035 49.0012 39.9619 48.9545 40.0831Z" fill="#324134"/>
<path d="M83.4935 40.6513L90.3998 42.594L92.284 35.9657C87.2927 34.6324 83.4935 40.6513 83.4935 40.6513Z" fill="#F5F5F5"/>
<path d="M51.4113 46.4989C50.9309 48.1894 49.1702 49.1712 47.4783 48.6905C45.7868 48.21 44.8056 46.4492 45.286 44.7585C45.7671 43.067 47.5274 42.086 49.219 42.5664C50.911 43.0473 51.8923 44.8074 51.4113 46.4989Z" fill="#F5F5F5"/>
<path d="M48.9345 49.3435C48.3933 49.4292 47.8502 49.3962 47.3198 49.2455C45.325 48.6789 44.1634 46.5952 44.7301 44.6008C45.1293 43.1966 46.3192 42.1418 47.7616 41.9134C48.3025 41.8278 48.8459 41.8607 49.3763 42.0114C50.3427 42.286 51.1445 42.9205 51.6335 43.7977C52.1226 44.675 52.2407 45.6904 51.9658 46.6568C51.5668 48.0605 50.3771 49.115 48.9345 49.3435ZM47.9422 43.0534C46.9422 43.2117 46.1173 43.9427 45.8405 44.9165C45.4477 46.2984 46.2527 47.7426 47.6353 48.1353C48.0034 48.2399 48.3797 48.2628 48.7539 48.2035C49.7539 48.0452 50.5788 47.3142 50.8554 46.3412C51.046 45.6714 50.9642 44.9675 50.6249 44.3594C50.286 43.7515 49.7303 43.312 49.0604 43.1217C48.6927 43.017 48.3164 42.9941 47.9422 43.0534Z" fill="#F6C90E"/>
<path d="M23.8981 34.8451C23.4174 36.5357 21.6567 37.5172 19.9647 37.0363C18.2733 36.5561 17.2917 34.7956 17.7725 33.1046C18.2534 31.4135 20.0141 30.4324 21.7053 30.9127C23.3973 31.3936 24.3787 33.1539 23.8981 34.8451Z" fill="#F5F5F5"/>
<path d="M21.4215 37.6892C20.8801 37.775 20.3368 37.742 19.8063 37.5912C18.8401 37.3167 18.0386 36.6825 17.5494 35.805C17.0602 34.9278 16.9422 33.9125 17.2167 32.9464C17.6158 31.5424 18.8057 30.4877 20.2481 30.2593C20.7891 30.1736 21.3322 30.2066 21.8624 30.3573C23.8574 30.9241 25.0193 33.008 24.4528 35.0024C24.0534 36.4064 22.8637 37.4609 21.4215 37.6892ZM20.4288 31.3995C19.4288 31.5578 18.6037 32.2891 18.327 33.2621C18.1367 33.9316 18.2187 34.6352 18.5577 35.2431C18.8967 35.8513 19.452 36.2906 20.1218 36.4809C20.4899 36.5855 20.8664 36.6086 21.2409 36.5493C22.2407 36.391 23.0656 35.6602 23.3422 34.687C23.735 33.3048 22.9297 31.8604 21.5469 31.4676C21.179 31.3634 20.8028 31.3402 20.4288 31.3995Z" fill="#F6C90E"/>
</svg>
