<svg width="159" height="142" viewBox="0 0 159 142" fill="none" xmlns="http://www.w3.org/2000/svg">
<path d="M103.763 103.527L103.881 103.622C100.852 102.116 97.0888 102.862 94.8765 105.606C92.3283 108.767 92.8167 113.401 95.9878 115.956C99.1571 118.51 103.794 118.005 106.343 114.844C108.65 111.98 108.467 107.934 106.073 105.294C106.214 105.084 107.049 103.806 107.356 103.239C107.36 103.228 107.367 103.219 107.371 103.21L105.284 101.996C104.691 102.605 103.763 103.527 103.763 103.527Z" fill="#324134"/>
<path d="M86.3694 76.4659C85.0479 75.4672 47.3251 47.8691 47.3251 47.8691C46.8059 49.2208 45.5615 51.5428 45.6672 51.3731C48.1925 53.0854 83.7463 76.9917 85.2685 78.0035C86.8463 79.0687 87.7545 77.5009 86.3694 76.4659Z" fill="#324134"/>
<path d="M130.269 114.133C131.597 112.485 126.431 110.124 119.163 105.467C112.069 100.931 45.5426 60.6281 40.756 57.6035C40.2236 58.0857 39.6736 58.537 39.1104 58.962C40.699 57.712 42.1752 56.2291 43.4995 54.5868C45.1981 52.4801 46.4853 50.2134 47.3612 47.9309C49.8206 41.5303 49.0245 35.0014 44.8126 31.474L22.1013 59.6488L26.0718 62.8477L26.0497 62.875L27.4395 63.995L27.4521 63.979C28.5333 64.8363 30.4719 66.159 32.1845 66.2516C35.7739 66.4572 37.2094 66.1396 37.2094 66.1396C37.2094 66.1396 41.2896 67.5499 46.8671 69.7823L46.8265 69.8327L48.5783 70.5171L48.6019 70.4879C54.4749 72.8927 61.5923 76.0711 67.3472 79.448C68.2617 79.9845 69.3513 80.6284 70.612 81.3682C70.5807 81.3992 70.5499 81.4305 70.5188 81.4609L72.8102 82.7582C72.8265 82.7326 72.8426 82.7063 72.8584 82.6813C80.8413 87.3801 93.3188 94.7464 105.339 101.941C105.321 101.959 105.303 101.978 105.284 101.997L107.371 103.21C107.377 103.196 107.381 103.182 107.392 103.169C119.782 110.6 128.941 115.781 130.269 114.133Z" fill="#324134"/>
<path d="M40.2706 57.6067C40.2736 57.6046 40.2761 57.6031 40.2783 57.6008L40.2727 57.6035C40.2727 57.6035 40.2726 57.6039 40.2706 57.6067Z" fill="black"/>
<path d="M20.1786 41.2121C20.1724 41.2408 20.1499 41.2691 20.1422 41.292C20.1534 41.278 20.1564 41.2607 20.17 41.2438L20.1786 41.2121Z" fill="black"/>
<path d="M23.1482 65.8097C23.5641 65.2937 23.9191 64.8534 23.9191 64.8534C24.2237 64.4299 24.1052 63.8005 23.6398 63.4254C23.1745 63.0502 22.5426 63.0757 22.1929 63.4628L20.0945 66.0781C19.7507 66.5039 19.8515 67.1468 20.3296 67.5321C20.8123 67.9211 21.4668 67.8956 21.8052 67.4757C21.808 67.4722 22.1873 67.002 22.6233 66.4607L22.6599 66.4903L23.1844 65.8398L23.1482 65.8097Z" fill="#58595B"/>
<path d="M27.38 66.439C26.9208 66.0686 26.2724 66.0807 25.9219 66.4673C25.9219 66.4673 25.5669 66.9079 25.1509 67.4238L25.1 67.3825L24.5755 68.0333L24.6262 68.0743C24.1899 68.6155 23.8177 69.0916 23.8149 69.0951C23.4765 69.515 23.5914 70.1601 24.0698 70.5454C24.5522 70.9344 25.2074 70.9007 25.551 70.4741L27.6552 67.8638C27.9588 67.4394 27.8456 66.8142 27.38 66.439Z" fill="#58595B"/>
<path d="M24.8633 67.191L27.4397 63.9949L26.0496 62.8752L23.4731 66.0715L23.1853 65.8398L22.6608 66.4903L24.5768 68.0341L25.1014 67.383L24.8633 67.191Z" fill="#929497"/>
<path d="M38.2714 79.8144L37.8016 80.3967C37.8066 80.3909 37.8125 80.3863 37.8171 80.3807C37.8191 80.379 38.0086 80.142 38.2714 79.8144Z" fill="black"/>
<path d="M38.6313 79.3626L38.6332 79.364L39.1572 78.714L39.1537 78.7112C39.5682 78.1936 39.9215 77.7523 39.9215 77.7523C40.2253 77.3279 40.1037 76.6983 39.6375 76.324C39.1704 75.9509 38.5353 75.975 38.192 76.3685L36.0969 78.9858C35.7547 79.4131 35.8614 80.058 36.3405 80.442C36.8171 80.8241 37.4595 80.8012 37.8008 80.3967L38.2706 79.8145C38.3807 79.6759 38.5026 79.5233 38.6313 79.3626Z" fill="#58595B"/>
<path d="M43.3892 79.326C42.9228 78.9528 42.2814 78.9717 41.932 79.3602C41.932 79.3602 41.5785 79.8009 41.1645 80.318L41.1123 80.2766L40.5895 80.9285L40.6423 80.9709C40.2074 81.5134 39.8294 81.9846 39.8265 81.9884C39.4901 82.4091 39.616 83.0614 40.0929 83.4438C40.5763 83.8308 41.2326 83.7945 41.5739 83.3668L43.6696 80.7499C43.9723 80.3249 43.8568 79.7001 43.3892 79.326Z" fill="#58595B"/>
<path d="M69.6336 82.3479L69.7628 82.442C66.7318 80.9307 62.9578 81.6714 60.7478 84.4131C58.1925 87.5829 58.6952 92.2251 61.8619 94.7764C65.025 97.3252 69.6667 96.8273 72.2219 93.6575C74.5255 90.7998 74.3358 86.7489 71.9521 84.1081C72.0418 83.9647 72.4578 83.3283 72.8111 82.7578L70.5196 81.4605C70.0594 81.9215 69.6336 82.3479 69.6336 82.3479Z" fill="#324134"/>
<path d="M43.1627 33.7164C43.1301 33.6898 43.0965 33.6686 43.0636 33.6432L37.2689 40.8319L45.1662 47.1598C45.1662 47.1598 48.6239 38.1165 43.1627 33.7164Z" fill="white"/>
<path d="M40.6421 80.9631L41.1669 80.3213L40.8808 80.0916L48.5619 70.4987L46.807 69.8203L39.4807 78.9712L39.1592 78.7145L38.6353 79.3645L40.6421 80.9631Z" fill="#929497"/>
<path d="M69.7924 91.8331C68.3146 93.6666 65.6279 93.9554 63.7936 92.4779C61.9586 90.9996 61.6705 88.3144 63.1484 86.4803C64.6274 84.6461 67.3122 84.3572 69.1475 85.8359C70.9817 87.3137 71.2708 89.9988 69.7924 91.8331Z" fill="white"/>
<path d="M65.2475 94.045C64.5355 93.8675 63.8829 93.5426 63.3081 93.0797C61.1445 91.3365 60.8024 88.1584 62.5458 85.995C63.7736 84.4724 65.7935 83.7943 67.6914 84.2674C68.4037 84.4449 69.0569 84.77 69.6325 85.2338C70.6803 86.0779 71.3367 87.28 71.4806 88.6179C71.6245 89.9562 71.2385 91.2701 70.394 92.318C69.1671 93.8407 67.147 94.5185 65.2475 94.045ZM67.3175 85.7679C66.0016 85.4399 64.6018 85.9098 63.7506 86.9656C62.5423 88.4647 62.7792 90.6675 64.2786 91.8754C64.6777 92.1968 65.1295 92.4219 65.6217 92.5446C66.9389 92.8729 68.339 92.403 69.1898 91.3478C69.7754 90.6217 70.0429 89.7105 69.9432 88.7833C69.8435 87.8558 69.3884 87.0229 68.662 86.4377C68.2624 86.1162 67.8104 85.8907 67.3175 85.7679Z" fill="#F6C90E"/>
<path d="M103.929 112.95C102.451 114.783 99.7649 115.072 97.9305 113.594C96.0955 112.116 95.8073 109.431 97.2851 107.598C98.7638 105.763 101.449 105.475 103.284 106.953C105.119 108.431 105.407 111.115 103.929 112.95Z" fill="white"/>
<path d="M99.3846 115.162C98.6726 114.985 98.02 114.66 97.4447 114.196C95.2813 112.453 94.9391 109.275 96.6824 107.112C97.91 105.589 99.9302 104.911 101.828 105.384C102.541 105.562 103.194 105.887 103.769 106.351C104.817 107.195 105.473 108.397 105.617 109.735C105.761 111.073 105.375 112.387 104.53 113.435C103.303 114.957 101.283 115.635 99.3846 115.162ZM101.455 106.885C100.138 106.557 98.7381 107.027 97.8873 108.083C96.6791 109.582 96.916 111.784 98.4155 112.992C98.8144 113.314 99.2665 113.539 99.7588 113.662C101.075 113.99 102.475 113.52 103.326 112.464C103.912 111.738 104.179 110.827 104.08 109.9C103.98 108.973 103.525 108.14 102.799 107.555C102.399 107.233 101.947 107.008 101.455 106.885Z" fill="#F6C90E"/>
</svg>
