<svg width="13" height="13" viewBox="0 0 13 13" fill="none" xmlns="http://www.w3.org/2000/svg">
<path d="M9.7924 8.83313C8.31458 10.6666 5.62788 10.9554 3.7936 9.47788C1.95856 7.99956 1.67047 5.31439 3.14844 3.4803C4.62739 1.64613 7.31222 1.35722 9.14748 2.83592C10.9817 4.31372 11.2708 6.99882 9.7924 8.83313Z" fill="white"/>
<path d="M5.24753 11.045C4.53554 10.8675 3.88294 10.5426 3.30815 10.0797C1.14447 8.33646 0.802355 5.15843 2.5458 2.99495C3.7736 1.47238 5.79348 0.794302 7.69143 1.26739C8.40372 1.44493 9.05691 1.76998 9.63246 2.23378C10.6803 3.07795 11.3367 4.28001 11.4806 5.61794C11.6245 6.95617 11.2385 8.27006 10.394 9.31795C9.16711 10.8407 7.14698 11.5185 5.24753 11.045ZM7.31754 2.76789C6.00161 2.43988 4.60178 2.9098 3.75056 3.96557C2.54233 5.46465 2.77916 7.66754 4.27864 8.87545C4.6777 9.19676 5.12946 9.42186 5.62173 9.54457C6.93886 9.87288 8.33899 9.40304 9.18976 8.34779C9.77543 7.6217 10.0429 6.71047 9.94316 5.78326C9.84354 4.85576 9.3884 4.02291 8.66204 3.4377C8.26238 3.11623 7.81041 2.89075 7.31754 2.76789Z" fill="#F6C90E"/>
</svg>
