<svg width="233" height="246" viewBox="0 0 233 246" fill="none" xmlns="http://www.w3.org/2000/svg">
<path d="M148.667 218.81L31.6787 184.396L79.4605 22.0519L196.449 56.4661C200.857 57.7626 203.378 62.386 202.081 66.7926L158.996 213.179C157.7 217.585 153.075 220.107 148.667 218.81Z" fill="#324134"/>
<path d="M197.292 65.7805L176.25 59.5896L132.459 208.347L153.501 214.538L197.292 65.7805Z" fill="white"/>
<path d="M140.602 216.498L29.0719 185.227L79.1137 22.4548L190.644 53.7261C194.846 54.9043 197.15 59.4411 195.792 63.8593L150.669 210.632C149.311 215.051 144.803 217.677 140.602 216.498Z" fill="#324134"/>
<path d="M80.7102 167.465C80.6718 167.453 80.6139 167.495 80.5366 167.589C80.4671 167.686 80.3842 167.799 80.2881 167.93C80.1975 168.07 80.0976 168.199 79.9883 168.317C79.8868 168.438 79.7837 168.521 79.6792 168.565C78.8196 168.916 77.8216 169.256 76.6851 169.585C75.5388 169.919 74.1545 170.255 72.5322 170.593C72.4754 170.502 72.4637 170.399 72.4971 170.283C73.1079 170.044 73.7534 169.785 74.4336 169.507C75.1039 169.235 75.7626 168.959 76.4098 168.68C77.0494 168.399 77.635 168.132 78.1667 167.877C78.6985 167.623 79.1285 167.39 79.4568 167.177C79.7927 166.966 79.9807 166.791 80.0208 166.653C80.1655 166.153 80.236 165.666 80.2322 165.19C80.2361 164.716 80.2139 164.348 80.1654 164.084C80.38 164.004 80.5824 163.938 80.7727 163.885C80.9707 163.834 81.1049 163.802 81.1753 163.789C81.2445 163.809 81.2861 163.838 81.3003 163.875C81.3221 163.915 81.3302 163.959 81.3245 164.007C81.3059 164.302 81.2762 164.605 81.2355 164.918C81.2024 165.234 81.1674 165.498 81.1304 165.712C81.0812 165.94 81.0718 166.087 81.1024 166.154C81.1329 166.221 81.2096 166.273 81.3326 166.308L82.0934 166.528L81.7361 167.762L80.7102 167.465ZM87.8666 168.2L87.5093 169.433L81.2617 167.624L81.619 166.391C81.8572 166.46 82.1338 166.54 82.4489 166.631C82.7717 166.725 83.1021 166.821 83.4402 166.918C83.786 167.019 84.1126 167.113 84.42 167.202C84.7351 167.293 85.0079 167.372 85.2385 167.439C85.5151 167.519 85.6881 167.54 85.7575 167.502C85.8346 167.466 85.8953 167.371 85.9399 167.217C85.9621 167.141 85.9634 167.079 85.9438 167.031C85.9265 166.976 85.83 166.907 85.6545 166.823C85.4351 166.717 85.0846 166.533 84.6031 166.268C84.1217 166.004 83.5888 165.658 83.0046 165.231C82.9768 165.039 82.9687 164.837 82.9805 164.624C83.0021 164.406 83.0347 164.207 83.0783 164.028C83.3833 163.866 83.7394 163.686 84.1468 163.488C84.5641 163.284 84.989 163.082 85.4216 162.882C85.8543 162.683 86.2565 162.516 86.6285 162.382C86.7341 162.363 86.8588 162.349 87.0028 162.341C87.1545 162.335 87.2963 162.334 87.4281 162.339C87.5677 162.346 87.6644 162.358 87.7182 162.373C87.8027 162.398 87.8448 162.439 87.8446 162.497C87.8521 162.558 87.8368 162.682 87.7988 162.871C87.7481 163.19 87.6692 163.592 87.5619 164.077C87.4569 164.554 87.3391 165.062 87.2085 165.599C87.078 166.135 86.9448 166.638 86.809 167.107C86.7111 167.445 86.6779 167.66 86.7094 167.753C86.7508 167.84 86.8715 167.912 87.0713 167.97L87.8666 168.2ZM86.3348 165.595C86.3771 165.449 86.4146 165.277 86.4472 165.078C86.4897 164.874 86.5184 164.674 86.5334 164.479C86.5584 164.278 86.5656 164.109 86.5551 163.973C86.5523 163.839 86.5317 163.766 86.4932 163.755C86.4394 163.739 86.3201 163.763 86.1353 163.826C85.9504 163.889 85.7435 163.971 85.5145 164.071C85.2933 164.174 85.0846 164.276 84.8886 164.377C84.7003 164.481 84.5682 164.563 84.4921 164.625C84.4624 164.641 84.4595 164.665 84.4836 164.697C84.6183 164.836 84.7936 164.978 85.0095 165.124C85.2354 165.265 85.457 165.391 85.6741 165.504C85.8913 165.617 86.0575 165.69 86.1728 165.723C86.2497 165.746 86.3037 165.703 86.3348 165.595ZM84.081 161.645C84.073 161.443 84.0996 161.221 84.1609 160.981C84.2321 160.735 84.3535 160.445 84.5251 160.112C84.8448 160.13 85.1326 160.171 85.3884 160.237C85.652 160.305 85.8478 160.391 85.976 160.495C85.9988 160.876 85.8508 161.387 85.5319 162.027C85.2298 162.007 84.9393 161.96 84.6604 161.888C84.3914 161.81 84.1983 161.729 84.081 161.645ZM94.2904 167.762C94.3004 168.014 94.2808 168.283 94.2314 168.569C94.182 168.855 94.1183 169.132 94.0404 169.401C93.9469 169.723 93.8343 170.011 93.7026 170.265C93.5709 170.518 93.4163 170.707 93.239 170.83C93.0693 170.956 92.873 170.986 92.6501 170.922L87.0365 169.296L87.3937 168.063L89.2035 168.587C89.2726 168.607 89.3298 168.611 89.3749 168.599C89.4299 168.582 89.4708 168.527 89.4975 168.435C89.5375 168.297 89.5481 168.117 89.5291 167.895C89.5178 167.675 89.489 167.458 89.4425 167.245C89.4059 167.026 89.3736 166.85 89.3455 166.717C89.5281 166.662 89.7135 166.611 89.9016 166.566C90.0919 166.513 90.2448 166.474 90.3603 166.449C90.4295 166.469 90.47 166.501 90.4819 166.546C90.5038 166.586 90.5157 166.631 90.5177 166.682C90.5176 166.998 90.4979 167.296 90.4584 167.576C90.4266 167.859 90.3822 168.112 90.3254 168.337C90.2828 168.542 90.2658 168.687 90.2743 168.772C90.2905 168.86 90.3869 168.93 90.5637 168.981L91.0824 169.131C91.2361 169.176 91.3385 169.11 91.3897 168.933C91.4298 168.795 91.442 168.623 91.4262 168.419C91.4204 168.209 91.3981 167.998 91.3593 167.787C91.3282 167.578 91.2997 167.404 91.2739 167.263C91.4565 167.208 91.638 167.156 91.8184 167.108C92.0065 167.063 92.1545 167.027 92.2622 166.999C92.3314 167.019 92.3731 167.048 92.3872 167.086C92.4091 167.125 92.421 167.17 92.423 167.221C92.4254 167.471 92.4057 167.741 92.364 168.028C92.3223 168.316 92.2663 168.595 92.1961 168.867C92.1459 169.069 92.1277 169.217 92.1417 169.313C92.1578 169.401 92.262 169.473 92.4541 169.528L92.9267 169.665C93.0727 169.708 93.1713 169.64 93.2225 169.464C93.2626 169.325 93.2786 169.155 93.2706 168.953C93.2724 168.745 93.2578 168.537 93.2267 168.328C93.2033 168.121 93.1748 167.947 93.1412 167.804C93.3316 167.75 93.5169 167.7 93.6973 167.652C93.8777 167.605 94.0257 167.568 94.1412 167.543C94.2103 167.564 94.252 167.592 94.2661 167.63C94.288 167.669 94.296 167.713 94.2904 167.762ZM97.1874 173.497C96.5721 173.752 95.9096 173.998 95.1999 174.234C94.4979 174.472 93.7223 174.705 92.873 174.934C92.0161 175.161 91.052 175.398 89.9807 175.646C89.9184 175.544 89.9028 175.44 89.934 175.332C90.5371 175.091 91.176 174.826 91.8508 174.538C92.5233 174.258 93.1892 173.972 93.8486 173.68C94.498 173.393 95.0958 173.113 95.6419 172.838C96.1857 172.57 96.629 172.32 96.9716 172.086C97.3165 171.844 97.5123 171.643 97.5591 171.481C97.6815 171.059 97.7369 170.638 97.7252 170.218C97.7136 169.798 97.6798 169.426 97.6238 169.102C97.8087 169.039 98.0001 168.982 98.1981 168.931C98.4038 168.882 98.5418 168.851 98.6122 168.838C98.6814 168.858 98.723 168.887 98.7372 168.924C98.759 168.964 98.7709 169.009 98.7729 169.06C98.7686 169.333 98.7371 169.686 98.6784 170.119C98.6274 170.554 98.5428 170.975 98.4249 171.382C98.3447 171.659 98.236 171.948 98.0986 172.25C97.9689 172.554 97.825 172.82 97.6671 173.049C97.5145 173.288 97.3546 173.438 97.1874 173.497ZM97.1096 167.728C97.1015 167.526 97.1282 167.305 97.1895 167.064C97.2607 166.819 97.3821 166.529 97.5537 166.196C97.8734 166.213 98.1612 166.255 98.417 166.321C98.6805 166.389 98.8764 166.474 99.0046 166.578C99.0273 166.96 98.8793 167.471 98.5605 168.111C98.2583 168.09 97.9678 168.044 97.6889 167.971C97.42 167.893 97.2269 167.812 97.1096 167.728ZM102.643 166.645C102.564 166.947 102.458 167.312 102.326 167.74C102.194 168.168 102.057 168.611 101.916 169.07C101.774 169.529 101.64 169.965 101.512 170.377C101.386 170.782 101.284 171.119 101.206 171.388C101.124 171.673 101.037 171.972 100.946 172.287C100.857 172.595 100.775 172.862 100.701 173.091C100.634 173.321 100.593 173.463 100.577 173.517C100.511 173.573 100.394 173.589 100.226 173.565C100.063 173.552 99.9332 173.526 99.8355 173.49C100.096 172.533 100.33 171.626 100.536 170.769C100.753 169.908 100.935 169.119 101.084 168.405C101.243 167.684 101.364 167.066 101.447 166.548C101.667 166.479 101.881 166.445 102.088 166.447C102.298 166.441 102.449 166.451 102.542 166.478C102.572 166.487 102.606 166.543 102.643 166.645ZM106.198 173.208C106.225 173.116 106.247 172.981 106.265 172.803C106.286 172.617 106.298 172.43 106.304 172.24C106.311 172.042 106.31 171.871 106.302 171.727C106.294 171.583 106.267 171.504 106.221 171.491C106.174 171.478 106.077 171.512 105.928 171.594C105.787 171.678 105.619 171.783 105.425 171.91C105.232 172.029 105.044 172.158 104.863 172.297C104.683 172.428 104.534 172.539 104.416 172.63C104.328 172.704 104.28 172.757 104.271 172.788C104.248 172.865 104.362 172.947 104.611 173.036C104.87 173.119 105.261 173.237 105.783 173.388C105.922 173.428 106.017 173.431 106.069 173.396C106.128 173.363 106.171 173.3 106.198 173.208ZM107.066 173.272C107.022 173.484 107.016 173.62 107.048 173.679C107.081 173.739 107.174 173.791 107.328 173.835L108.135 174.069L107.778 175.302L106.729 174.999C106.652 174.976 106.59 174.988 106.544 175.032C106.498 175.077 106.44 175.161 106.372 175.282C106.26 175.467 106.15 175.63 106.042 175.774C105.939 175.927 105.846 176.017 105.764 176.043C104.763 176.42 103.682 176.773 102.521 177.103C101.357 177.441 100.038 177.779 98.5656 178.119C98.4956 178.015 98.4751 177.914 98.5041 177.814C99.1248 177.569 99.7565 177.315 100.399 177.051C101.032 176.793 101.65 176.53 102.252 176.263C102.852 176.004 103.41 175.745 103.926 175.486C104.443 175.228 104.885 174.981 105.253 174.746C105.352 174.691 105.405 174.653 105.411 174.63C105.416 174.614 105.372 174.593 105.28 174.566C104.88 174.451 104.522 174.351 104.204 174.268C103.897 174.179 103.601 174.093 103.317 174.011C103.04 173.93 102.736 173.843 102.406 173.747C102.374 173.571 102.376 173.376 102.413 173.162C102.45 172.948 102.498 172.741 102.556 172.541C102.7 172.416 102.894 172.264 103.137 172.085C103.391 171.9 103.671 171.71 103.977 171.516C104.285 171.314 104.591 171.123 104.892 170.944C105.196 170.757 105.476 170.597 105.731 170.462C105.989 170.32 106.188 170.224 106.328 170.173C106.476 170.149 106.655 170.134 106.865 170.129C107.075 170.123 107.234 170.135 107.341 170.166C107.418 170.189 107.46 170.217 107.466 170.253C107.444 170.704 107.394 171.194 107.316 171.721C107.238 172.248 107.155 172.765 107.066 173.272ZM113.281 175.172C113.312 175.064 113.331 174.911 113.338 174.714C113.355 174.51 113.352 174.322 113.327 174.148C113.302 173.975 113.248 173.876 113.163 173.851C112.871 173.767 112.536 173.715 112.158 173.697C111.79 173.674 111.413 173.652 111.028 173.632C110.642 173.612 110.296 173.558 109.988 173.469C109.742 173.398 109.576 173.266 109.49 173.075C109.404 172.883 109.364 172.676 109.37 172.453C109.387 172.224 109.42 172.022 109.472 171.845C109.598 171.898 109.733 171.95 109.877 172C110.02 172.05 110.181 172.1 110.357 172.152C110.841 172.292 111.301 172.387 111.736 172.438C112.181 172.484 112.579 172.52 112.929 172.546C113.29 172.568 113.585 172.611 113.816 172.678C113.931 172.712 114.007 172.821 114.045 173.007C114.093 173.187 114.112 173.48 114.103 173.886C114.101 174.293 114.076 174.856 114.026 175.575C114.019 175.656 114.039 175.716 114.086 175.755C114.141 175.796 114.195 175.824 114.249 175.839L114.364 175.873C114.396 176.023 114.414 176.204 114.42 176.414C114.426 176.623 114.408 176.801 114.365 176.947C114.334 177.055 114.299 177.12 114.259 177.142C114.222 177.156 114.184 177.157 114.145 177.146L107.321 175.17L107.679 173.937L112.993 175.476C113.046 175.491 113.094 175.484 113.136 175.455C113.186 175.427 113.234 175.333 113.281 175.172ZM109.585 178.311C109.577 178.109 109.604 177.884 109.668 177.636C109.737 177.398 109.857 177.112 110.029 176.779C110.349 176.796 110.636 176.838 110.892 176.904C111.156 176.972 111.352 177.057 111.48 177.161C111.502 177.543 111.354 178.054 111.036 178.694C110.733 178.673 110.444 178.623 110.167 178.543C109.896 178.472 109.702 178.395 109.585 178.311Z" fill="#E7ECF1"/>
<path d="M82.6737 179.176C82.8273 178.646 82.6303 178.302 82.0828 178.143L81.322 177.923L80.5332 180.646L81.2939 180.866C81.8415 181.024 82.1912 180.842 82.3431 180.317L82.6737 179.176ZM80.866 177.2L82.2752 177.608C82.7305 177.74 83.0421 177.959 83.2099 178.263C83.3835 178.57 83.4127 178.922 83.2975 179.319L82.9494 180.521C82.8326 180.924 82.6218 181.21 82.317 181.378C82.0139 181.54 81.6318 181.554 81.1708 181.421L80.3754 181.19L79.7969 183.187L79.1831 183.009L80.866 177.2ZM83.6646 182.789L83.5895 183.048C83.5227 183.279 83.5282 183.465 83.606 183.606C83.6838 183.747 83.8754 183.862 84.1809 183.95C84.4863 184.039 84.8071 184.01 85.1431 183.864L85.6114 182.247L84.5457 182.238C84.2646 182.238 84.0621 182.28 83.9382 182.362C83.8142 182.445 83.7231 182.587 83.6646 182.789ZM85.4745 179.453C86.4543 179.737 86.8231 180.296 86.581 181.132L85.5067 184.84L84.9188 184.67L85.0215 184.316C84.6524 184.49 84.2633 184.518 83.8541 184.399C83.0529 184.167 82.7667 183.657 82.9955 182.867L83.0756 182.59C83.2492 181.991 83.7131 181.694 84.4673 181.7L85.7753 181.714L85.9932 180.962C86.0559 180.724 86.0397 180.532 85.9446 180.386C85.8495 180.239 85.6089 180.11 85.2227 179.999C84.8423 179.888 84.4741 179.844 84.1179 179.866L84.2857 179.287C84.646 179.272 85.0422 179.328 85.4745 179.453ZM87.3897 181.31C87.5066 180.907 87.7087 180.64 87.996 180.511C88.285 180.376 88.6917 180.385 89.2162 180.536C89.5389 180.63 89.8446 180.772 90.1332 180.961L89.968 181.532C89.7098 181.345 89.4079 181.201 89.0621 181.101C88.7162 181.001 88.4678 180.985 88.3167 181.054C88.1673 181.117 88.0584 181.266 87.9899 181.502L87.9248 181.727C87.8714 181.912 87.865 182.063 87.9058 182.181C87.9524 182.3 88.0611 182.432 88.232 182.575L88.8703 183.153C89.3156 183.557 89.4731 183.984 89.3429 184.433L89.2753 184.667C89.0415 185.473 88.4031 185.726 87.3599 185.424C86.9679 185.31 86.6355 185.164 86.3625 184.985L86.5278 184.415C86.7974 184.605 87.1138 184.753 87.4769 184.858C87.8458 184.965 88.1181 184.984 88.2939 184.917C88.4772 184.845 88.6005 184.699 88.6639 184.48L88.714 184.307C88.7608 184.146 88.7592 184.011 88.7093 183.903C88.6611 183.789 88.5425 183.649 88.3536 183.482L87.7128 182.912C87.2954 182.541 87.1593 182.105 87.3046 181.604L87.3897 181.31ZM90.5135 182.214C90.6304 181.811 90.8325 181.545 91.1198 181.416C91.4088 181.281 91.8155 181.289 92.34 181.441C92.6627 181.534 92.9684 181.676 93.257 181.866L93.0917 182.436C92.8336 182.249 92.5316 182.105 92.1858 182.005C91.84 181.905 91.5916 181.89 91.4405 181.958C91.2911 182.021 91.1821 182.171 91.1137 182.407L91.0486 182.632C90.9952 182.816 90.9888 182.967 91.0296 183.085C91.0762 183.205 91.1849 183.336 91.3558 183.48L91.9941 184.058C92.4394 184.462 92.5969 184.888 92.4667 185.338L92.399 185.571C92.1653 186.378 91.5268 186.63 90.4836 186.328C90.0917 186.215 89.7593 186.069 89.4863 185.89L89.6516 185.319C89.9212 185.51 90.2376 185.657 90.6007 185.763C90.9696 185.869 91.2419 185.889 91.4177 185.821C91.6009 185.749 91.7243 185.604 91.7877 185.385L91.8378 185.212C91.8846 185.051 91.883 184.916 91.8331 184.808C91.7849 184.694 91.6663 184.553 91.4774 184.386L90.8365 183.816C90.4192 183.446 90.2831 183.01 90.4284 182.508L90.5135 182.214ZM96.1283 183.868C96.2502 183.448 96.0978 183.176 95.6713 183.052C95.3947 182.972 95.0762 182.961 94.7158 183.019L93.679 186.598L94.4052 186.808C94.9412 186.963 95.2835 186.784 95.4321 186.271L96.1283 183.868ZM94.8476 182.467C95.2822 182.412 95.6608 182.431 95.9836 182.524C96.3064 182.618 96.5423 182.795 96.6913 183.057C96.8478 183.315 96.8735 183.625 96.7683 183.988L96.042 186.495C95.9251 186.898 95.7152 187.181 95.4121 187.343C95.1164 187.501 94.7755 187.524 94.3894 187.412L93.5162 187.16L93.1431 188.448L92.5292 188.27L94.3273 182.063L94.9152 182.234L94.8476 182.467ZM99.9379 185.056C100.093 184.52 99.9057 184.175 99.3754 184.022C98.8452 183.868 98.5024 184.059 98.3472 184.595L97.6535 186.99C97.4965 187.531 97.6832 187.879 98.2134 188.032C98.7437 188.186 99.0873 187.992 99.2442 187.45L99.9379 185.056ZM97.7445 184.411C97.863 184.002 98.0726 183.71 98.3733 183.535C98.674 183.359 99.0606 183.34 99.5332 183.477C100.006 183.614 100.322 183.837 100.483 184.145C100.643 184.454 100.664 184.813 100.546 185.222L99.8469 187.634C99.7283 188.043 99.5187 188.335 99.2181 188.511C98.9174 188.686 98.5308 188.705 98.0582 188.568C97.5855 188.432 97.269 188.209 97.1086 187.9C96.9482 187.591 96.9273 187.232 97.0458 186.823L97.7445 184.411ZM103.617 184.725L103.833 184.788L103.663 185.375L103.369 185.29C103.161 185.23 102.958 185.231 102.759 185.292C102.697 185.311 102.562 185.357 102.354 185.428L101.207 189.387L100.594 189.209L102.019 184.29L102.606 184.461L102.499 184.832C102.519 184.826 102.572 184.807 102.656 184.775C102.746 184.745 102.798 184.728 102.811 184.726C102.831 184.719 102.876 184.707 102.943 184.689C103.017 184.673 103.069 184.666 103.099 184.669C103.137 184.667 103.187 184.666 103.25 184.666C103.345 184.662 103.467 184.682 103.617 184.725ZM105.33 184.284L105.072 185.175L106.17 185.492L106.012 186.037L104.914 185.719L103.963 189.004C103.904 189.206 103.911 189.367 103.982 189.487C104.055 189.602 104.192 189.689 104.394 189.747C104.596 189.806 104.801 189.831 105.009 189.822L104.847 190.384C104.599 190.375 104.375 190.341 104.173 190.283C103.401 190.059 103.121 189.581 103.333 188.85L104.292 185.539L103.756 185.384L103.914 184.839L104.476 185.002L104.906 184.162L105.33 184.284Z" fill="#E7ECF1"/>
<path d="M87.9384 70.928L88.0245 69.1985L86.4607 68.7752L85.6622 70.3119L85.0454 70.1449L87.9469 64.665L88.8157 64.9001L88.5553 71.095L87.9384 70.928ZM86.7195 68.2672L88.0488 68.627L88.2103 65.3796L86.7195 68.2672ZM91.4187 69.3527L90.5586 69.1199L89.9234 71.4653L89.3066 71.2983L90.8875 65.4609L92.3036 65.8442C92.767 65.9697 93.0852 66.1832 93.2584 66.4849C93.4331 66.7809 93.4656 67.1315 93.3558 67.5369L93.1229 68.3969C92.9535 69.0223 92.5947 69.3603 92.0464 69.4108L92.3125 72.112L91.6349 71.9286L91.4187 69.3527ZM90.7045 68.5814L91.4777 68.7906C92.0221 68.938 92.3657 68.7482 92.5084 68.2212L92.7319 67.396C92.8746 66.869 92.6738 66.5318 92.1293 66.3845L91.3561 66.1752L90.7045 68.5814ZM95.7184 73.0339L95.8045 71.3044L94.2407 70.8811L93.4422 72.4178L92.8254 72.2508L95.7269 66.7709L96.5957 67.006L96.3353 73.2009L95.7184 73.0339ZM94.4995 70.3731L95.8288 70.7329L95.9903 67.4855L94.4995 70.3731ZM101.212 69.6727L101.078 70.1678C100.927 70.7238 100.615 71.0248 100.143 71.0709C100.564 71.3527 100.696 71.7832 100.539 72.3623L100.398 72.8835C100.287 73.2946 100.08 73.5868 99.7783 73.7599C99.4839 73.9289 99.105 73.9506 98.6417 73.8252L97.0866 73.4043L98.6675 67.5668L100.17 67.9737C100.634 68.0991 100.949 68.3119 101.117 68.612C101.291 68.908 101.323 69.2615 101.212 69.6727ZM99.9725 68.4981L99.1385 68.2724L98.5715 70.3659L99.4055 70.5916C99.9615 70.7421 100.312 70.551 100.456 70.0182L100.59 69.5231C100.734 68.9903 100.529 68.6487 99.9725 68.4981ZM99.7859 72.6991L99.927 72.1779C100.071 71.6451 99.8655 71.3035 99.3094 71.153L98.4233 70.9131L97.8492 73.0327L98.7354 73.2725C99.2914 73.423 99.6416 73.2319 99.7859 72.6991ZM104.909 73.0042L104.048 72.7714L103.413 75.1168L102.796 74.9498L104.377 69.1124L105.793 69.4957C106.257 69.6212 106.575 69.8347 106.748 70.1364C106.923 70.4324 106.955 70.783 106.846 71.1884L106.613 72.0484C106.443 72.6738 106.085 73.0118 105.536 73.0622L105.802 75.7635L105.125 75.5801L104.909 73.0042ZM104.194 72.2328L104.968 72.4421C105.512 72.5895 105.856 72.3997 105.998 71.8727L106.222 71.0475C106.364 70.5205 106.164 70.1833 105.619 70.0359L104.846 69.8266L104.194 72.2328ZM108.348 70.1872L110.876 70.8715L110.728 71.4188L108.817 70.9014L108.254 72.9775L109.922 73.429L109.774 73.9763L108.106 73.5248L107.532 75.6443L109.443 76.1617L109.295 76.7089L106.767 76.0246L108.348 70.1872ZM113.643 73.0656C113.787 72.5329 113.584 72.192 113.034 72.0431L112.27 71.8361L111.529 74.5724L112.293 74.7793C112.843 74.9283 113.19 74.7393 113.332 74.2123L113.643 73.0656ZM111.801 71.1219L113.217 71.5052C113.675 71.6291 113.99 71.8418 114.163 72.1436C114.342 72.4468 114.378 72.7983 114.269 73.1979L113.942 74.4053C113.832 74.8107 113.627 75.0999 113.325 75.2731C113.025 75.4405 112.643 75.4614 112.18 75.336L111.38 75.1197L110.837 77.1263L110.22 76.9593L111.801 71.1219ZM117.895 72.7715L118.512 72.9384L117.279 77.4902C117.168 77.9014 116.953 78.2007 116.635 78.3881C116.324 78.5712 115.926 78.597 115.439 78.4653C114.953 78.3336 114.619 78.1095 114.437 77.7931C114.263 77.4724 114.231 77.1065 114.343 76.6954L115.575 72.1436L116.192 72.3105L114.964 76.845C114.814 77.4009 115.022 77.7557 115.59 77.9093C116.157 78.063 116.516 77.8618 116.667 77.3059L117.895 72.7715ZM122.21 75.3566L122.076 75.8517C121.925 76.4077 121.614 76.7087 121.141 76.7548C121.562 77.0366 121.694 77.4671 121.537 78.0462L121.396 78.5674C121.285 78.9785 121.078 79.2707 120.777 79.4439C120.482 79.6128 120.103 79.6346 119.64 79.5091L118.085 79.0882L119.666 73.2508L121.169 73.6576C121.632 73.783 121.948 73.9958 122.115 74.296C122.29 74.5919 122.321 74.9454 122.21 75.3566ZM120.971 74.1821L120.137 73.9563L119.57 76.0498L120.404 76.2755C120.96 76.4261 121.31 76.2349 121.454 75.7021L121.588 75.207C121.733 74.6742 121.527 74.3326 120.971 74.1821ZM120.784 78.383L120.925 77.8618C121.07 77.3291 120.864 76.9874 120.308 76.8369L119.422 76.597L118.848 78.7166L119.734 78.9565C120.29 79.107 120.64 78.9158 120.784 78.383ZM123.73 74.3508L124.347 74.5178L122.911 79.8166L124.684 80.2964L124.538 80.8349L122.149 80.1882L123.73 74.3508ZM126.759 75.1707L127.375 75.3376L125.794 81.1751L125.178 81.0081L126.759 75.1707ZM128.165 76.8287C128.388 76.0063 129.02 75.7363 130.063 76.0185C130.399 76.1094 130.722 76.2467 131.033 76.4303L130.878 77.0036C130.563 76.8126 130.234 76.6709 129.893 76.5784C129.551 76.4859 129.294 76.4816 129.122 76.5656C128.952 76.6438 128.835 76.7988 128.772 77.0304L127.853 80.4269C127.791 80.6527 127.814 80.8453 127.92 81.0045C128.033 81.1595 128.267 81.2848 128.62 81.3805C128.979 81.4777 129.33 81.5231 129.674 81.5166L129.521 82.0813C129.207 82.0955 128.852 82.0494 128.458 81.9428C127.416 81.6606 127.006 81.1083 127.229 80.286L128.165 76.8287ZM135.528 78.9429C135.677 78.3927 135.465 78.04 134.891 77.8848C134.324 77.7312 133.965 77.9295 133.816 78.4796L132.941 81.711C132.791 82.267 132.999 82.6218 133.567 82.7754C134.14 82.9306 134.502 82.7303 134.653 82.1743L135.528 78.9429ZM133.202 78.304C133.313 77.8928 133.528 77.5935 133.846 77.4061C134.164 77.2187 134.563 77.1901 135.044 77.3202C135.531 77.4519 135.864 77.6789 136.044 78.0011C136.224 78.3233 136.258 78.69 136.147 79.1012L135.265 82.3586C135.153 82.7698 134.939 83.0691 134.621 83.2565C134.304 83.4381 133.903 83.463 133.416 83.3314C132.93 83.1997 132.596 82.9756 132.414 82.6592C132.24 82.3385 132.208 81.9726 132.32 81.5614L133.202 78.304ZM137.61 78.1079L140.068 78.7735L139.92 79.3207L138.078 78.8222L137.486 81.0112L139.232 81.4839L139.081 82.0398L137.335 81.5671L136.646 84.1123L136.029 83.9454L137.61 78.1079ZM142.48 79.4261L145.008 80.1105L144.86 80.6577L142.948 80.1404L142.386 82.2165L144.054 82.668L143.906 83.2153L142.238 82.7637L141.664 84.8833L143.575 85.4006L143.427 85.9479L140.899 85.2636L142.48 79.4261ZM145.51 81.5795C145.618 81.1799 145.833 80.9025 146.155 80.7472C146.484 80.5876 146.923 80.5824 147.474 80.7313C147.844 80.8316 148.181 80.9757 148.485 81.1635L148.325 81.7542C148.013 81.5517 147.677 81.4018 147.318 81.3046C146.959 81.2074 146.684 81.2013 146.493 81.2864C146.31 81.3673 146.184 81.5322 146.117 81.7812L145.211 85.1256C145.084 85.5947 145.299 85.9044 145.855 86.055C146.22 86.1537 146.497 86.1635 146.686 86.0842L147.274 83.9125L147.891 84.0795L147.197 86.642C146.723 86.7624 146.243 86.7567 145.756 86.625C144.754 86.3538 144.365 85.807 144.587 84.9847L145.51 81.5795ZM149.732 87.6545L149.115 87.4875L149.649 85.5157L149.262 81.2621L149.897 81.4338L150.057 83.1833C150.063 83.2533 150.099 83.8194 150.166 84.8817C150.56 84.2737 151.212 83.3251 152.121 82.0358L152.746 82.2051L150.266 85.6826L149.732 87.6545ZM155.224 84.3209C155.368 83.7882 155.165 83.4473 154.615 83.2984L153.851 83.0914L153.109 85.8277L153.874 86.0347C154.424 86.1836 154.771 85.9946 154.913 85.4676L155.224 84.3209ZM153.382 82.3772L154.798 82.7605C155.256 82.8844 155.571 83.0971 155.744 83.3989C155.923 83.7021 155.958 84.0536 155.85 84.4532L155.523 85.6606C155.413 86.066 155.208 86.3552 154.906 86.5284C154.606 86.6958 154.224 86.7167 153.761 86.5913L152.961 86.375L152.418 88.3816L151.801 88.2146L153.382 82.3772ZM159.563 84.0503L159.415 84.5975L158.285 84.2918L156.853 89.582L156.227 89.4127L157.66 84.1225L156.53 83.8168L156.679 83.2695L159.563 84.0503Z" fill="#E7ECF1"/>
<path d="M88.1217 50.5238C88.144 50.3734 88.1658 50.1982 88.1874 49.9982C88.2178 49.7924 88.2325 49.6111 88.2317 49.4541C88.2231 49.2949 88.1958 49.2087 88.1496 49.1955C88.0727 49.1734 87.9421 49.1896 87.7577 49.244C87.581 49.3006 87.3842 49.3844 87.1674 49.4955C86.9518 49.5986 86.7415 49.7198 86.5365 49.859C86.3328 49.9903 86.1603 50.1265 86.0192 50.2675C85.8782 50.4085 85.7994 50.5344 85.7831 50.6452C85.7749 50.7006 85.8927 50.7715 86.1364 50.8579C86.3802 50.9443 86.7718 51.0607 87.3114 51.2071C87.519 51.2666 87.6719 51.2898 87.77 51.2767C87.8758 51.2658 87.9491 51.2043 87.9897 51.0922C88.0391 50.9744 88.0832 50.7849 88.1217 50.5238ZM89.0533 51.7064L89.9531 51.9644L89.7654 53.2345C88.3888 52.8399 87.2737 52.5202 86.42 52.2755C85.574 52.033 84.8857 51.8356 84.3551 51.6835C84.2925 51.4016 84.2616 51.1494 84.2624 50.927C84.2632 50.7045 84.2777 50.4983 84.3057 50.3083C84.3209 50.2055 84.4174 50.0681 84.5951 49.8964C84.7739 49.7167 84.9986 49.5254 85.2691 49.3224C85.5472 49.1217 85.8452 48.9226 86.163 48.725C86.4807 48.5274 86.7912 48.3524 87.0943 48.2001C87.3985 48.0398 87.6688 47.9193 87.9052 47.8386C88.1427 47.75 88.3153 47.7211 88.423 47.752C88.4615 47.763 88.5293 47.8196 88.6264 47.9216C88.7324 48.018 88.8405 48.1274 88.9507 48.2497C89.0609 48.372 89.1409 48.4816 89.1907 48.5783C89.1734 48.8043 89.1463 49.0688 89.1096 49.3717C89.0817 49.6689 89.0473 49.956 89.0064 50.233C88.9732 50.5122 88.9443 50.7348 88.9197 50.901C88.8695 51.2413 88.8539 51.4554 88.8729 51.5434C88.8932 51.6234 88.9533 51.6778 89.0533 51.7064ZM86.034 46.4237C86.0047 46.2421 86.0014 46.0473 86.0241 45.8394C86.0557 45.6257 86.1245 45.3773 86.2304 45.0942C86.4859 45.1015 86.7174 45.1349 86.925 45.1944C87.1416 45.2482 87.3111 45.3216 87.4336 45.4144C87.4892 45.7438 87.4243 46.183 87.239 46.732C86.9847 46.7169 86.7455 46.6813 86.5213 46.6253C86.2982 46.5613 86.1358 46.4942 86.034 46.4237ZM87.7924 46.7298C87.762 46.5561 87.762 46.3664 87.7924 46.1607C87.8239 45.947 87.8888 45.6975 87.9871 45.4122C88.2502 45.4217 88.4856 45.4562 88.6933 45.5157C88.9098 45.5695 89.0761 45.6378 89.1921 45.7206C89.2465 46.0578 89.1816 46.497 88.9974 47.0382C88.7508 47.0252 88.5116 46.9896 88.2797 46.9314C88.0567 46.8675 87.8943 46.8003 87.7924 46.7298ZM92.7814 52.7752L93.4044 52.9538L93.2167 54.2239L89.3061 53.1028L89.4937 51.8327L91.3164 52.3552C91.4625 52.3971 91.549 52.327 91.5759 52.145C91.611 51.9076 91.5848 51.6238 91.4973 51.2935C91.4175 50.9654 91.3357 50.678 91.2519 50.4313C91.337 50.3979 91.4425 50.3622 91.5684 50.324C91.6954 50.2779 91.8175 50.2387 91.9345 50.2062C92.0515 50.1738 92.1304 50.1552 92.1712 50.1504C92.2404 50.1702 92.2842 50.1993 92.3026 50.2375C92.3287 50.278 92.3459 50.3242 92.3543 50.3761C92.3856 50.7068 92.3994 51.0201 92.3958 51.316C92.3999 51.6141 92.3924 51.9089 92.3734 52.2004C92.3583 52.4106 92.3896 52.5515 92.4672 52.6232C92.546 52.6871 92.6507 52.7377 92.7814 52.7752ZM89.2064 55.487C89.1771 55.3054 89.1782 55.1077 89.2098 54.8941C89.2325 54.6861 89.2968 54.4406 89.4028 54.1575C89.6582 54.1647 89.8903 54.1942 90.0992 54.2458C90.3145 54.3075 90.4834 54.3848 90.606 54.4777C90.6616 54.8071 90.5967 55.2463 90.4113 55.7953C90.1571 55.7801 89.9184 55.7406 89.6954 55.6767C89.4712 55.6206 89.3082 55.5574 89.2064 55.487ZM90.9648 55.7931C90.9343 55.6194 90.9349 55.4257 90.9665 55.212C90.9969 55.0063 91.0612 54.7608 91.1595 54.4755C91.4226 54.4849 91.6586 54.5155 91.8674 54.5671C92.0827 54.6288 92.2484 54.7011 92.3645 54.7838C92.4188 55.1211 92.3539 55.5603 92.1698 56.1014C91.9232 56.0885 91.6845 56.0489 91.4538 55.9828C91.2296 55.9268 91.0666 55.8635 90.9648 55.7931ZM93.581 56.7905C93.5475 56.583 93.5457 56.3515 93.5754 56.096C93.6116 55.8507 93.6912 55.556 93.8142 55.2118C94.1247 55.2265 94.4074 55.2663 94.6624 55.3312C94.925 55.3982 95.1247 55.4844 95.2615 55.5895C95.3319 55.9809 95.2542 56.5072 95.0282 57.1683C94.7343 57.15 94.449 57.1012 94.1721 57.0219C93.9018 56.9526 93.7047 56.8755 93.581 56.7905ZM94.749 54.6631L92.7533 54.091L92.941 52.8209L94.8444 53.3666C94.9982 53.4107 95.0885 53.3417 95.1154 53.1597C95.1377 53.0093 95.132 52.8304 95.0986 52.6228C95.0663 52.4073 95.0213 52.1965 94.9636 51.9902C94.9147 51.7782 94.8689 51.6001 94.8261 51.4559C95.0205 51.3879 95.1933 51.3302 95.3446 51.2828C95.5036 51.2377 95.641 51.2028 95.7569 51.1783C95.8261 51.1981 95.8699 51.2272 95.8883 51.2654C95.9144 51.3059 95.9278 51.351 95.9284 51.4007C95.9626 51.6579 95.974 51.9334 95.9627 52.2271C95.9513 52.5208 95.9252 52.8062 95.8843 53.0831C95.8352 53.4155 95.7633 53.7125 95.6685 53.974C95.5814 54.2377 95.4603 54.434 95.305 54.5627C95.1574 54.6936 94.9721 54.7271 94.749 54.6631ZM99.5353 56.0352C99.4968 56.0242 99.4463 56.0674 99.3838 56.165C99.329 56.2648 99.2636 56.3821 99.1875 56.517C99.118 56.6621 99.0381 56.7959 98.9478 56.9185C98.8653 57.0433 98.7764 57.1292 98.6813 57.1762C97.8973 57.5453 96.9784 57.9047 95.9247 58.2543C94.8622 58.6096 93.5705 58.9693 92.0497 59.3335C91.9834 59.2402 91.9589 59.1342 91.9765 59.0155C92.5348 58.7632 93.1242 58.4908 93.7445 58.1985C94.356 57.9118 94.956 57.6219 95.5444 57.3287C96.1252 57.0332 96.6557 56.7522 97.136 56.4857C97.6162 56.2192 98.001 55.9748 98.2904 55.7526C98.5874 55.5325 98.7465 55.3513 98.7675 55.2088C98.8435 54.6945 98.8495 54.193 98.7854 53.7044C98.729 53.2181 98.6606 52.8397 98.5803 52.5692C98.7771 52.4854 98.9638 52.4152 99.1405 52.3586C99.3249 52.3042 99.4502 52.27 99.5164 52.256C99.5856 52.2759 99.6294 52.3049 99.6478 52.3432C99.6739 52.3837 99.6873 52.4287 99.688 52.4784C99.7074 52.7809 99.7174 53.0931 99.7179 53.415C99.7262 53.7391 99.7261 54.0112 99.7176 54.2315C99.699 54.4654 99.7088 54.6167 99.7467 54.6853C99.7847 54.7539 99.8652 54.8059 99.9882 54.8411L100.75 55.0594L100.562 56.3295L99.5353 56.0352ZM103.965 56.7235L103.359 56.5126L102.94 55.6872C103.155 55.7489 103.281 55.7644 103.318 55.7337C103.363 55.6972 103.403 55.5642 103.437 55.3348C103.468 55.1211 103.396 54.9601 103.219 54.8518C103.051 54.7457 102.824 54.6519 102.539 54.5703C102.401 54.5306 102.255 54.4887 102.101 54.4446C101.956 54.3948 101.826 54.3534 101.711 54.3203C101.628 54.2305 101.557 54.0577 101.499 53.8017C101.44 53.5458 101.402 53.3162 101.384 53.1131C101.927 52.749 102.453 52.3636 102.962 51.9569C103.478 51.5523 103.934 51.155 104.328 50.7649C104.345 50.7613 104.361 50.7618 104.376 50.7662C104.422 50.7794 104.489 50.8191 104.575 50.8851C104.669 50.9533 104.758 51.0284 104.842 51.1102C104.935 51.1863 105.006 51.248 105.055 51.295C105.259 51.873 105.491 52.4676 105.754 53.079C106.017 53.6825 106.291 54.2475 106.574 54.774C106.526 54.9336 106.469 55.074 106.403 55.1953C106.338 55.3087 106.261 55.4267 106.171 55.5493C106.123 55.6016 106.078 55.6341 106.036 55.6468C105.995 55.6516 105.948 55.6463 105.894 55.6309C105.532 55.5273 105.255 55.4519 105.062 55.4047C104.876 55.3597 104.72 55.3314 104.593 55.3199C104.467 55.3083 104.379 55.3327 104.33 55.3929C104.281 55.4531 104.249 55.5346 104.234 55.6375C104.206 55.8274 104.212 55.9488 104.252 56.0015C104.3 56.0565 104.374 56.0984 104.474 56.127L103.965 56.7235ZM100.087 56.1934L100.275 54.9233L106.989 56.848L106.801 58.1181L100.087 56.1934ZM104.297 55.2101L103.522 54.8395C103.551 54.6417 103.636 54.501 103.777 54.4176C103.926 54.3285 104.098 54.2787 104.292 54.2683C104.485 54.2579 104.673 54.2662 104.853 54.2932C105.041 54.3223 105.189 54.3523 105.297 54.3832C105.358 54.4009 105.391 54.3978 105.394 54.3741C105.398 54.3503 105.385 54.3013 105.356 54.227C105.295 54.0941 105.213 53.918 105.109 53.6985C105.007 53.4711 104.903 53.2476 104.799 53.0281C104.697 52.8007 104.611 52.6195 104.543 52.4844C104.519 52.4281 104.5 52.3978 104.484 52.3934C104.469 52.389 104.425 52.4136 104.353 52.4671C104.255 52.5379 104.111 52.645 103.921 52.7887C103.739 52.9345 103.553 53.0832 103.362 53.2347C103.18 53.3805 103.039 53.4967 102.938 53.5833C102.918 53.6105 102.931 53.6308 102.977 53.644C103.185 53.7035 103.399 53.802 103.619 53.9393C103.84 54.0688 104.019 54.2397 104.156 54.4522C104.294 54.6568 104.341 54.9094 104.297 55.2101ZM106.34 57.9858L106.527 56.7157L107.565 57.0133C107.742 57.064 107.886 57.0681 107.997 57.0255C108.107 56.9829 108.187 56.7955 108.236 56.4631C108.276 56.194 108.304 55.8641 108.322 55.4732C108.34 55.0823 108.349 54.6644 108.351 54.2194C108.354 53.7666 108.349 53.3115 108.336 52.8542C108.324 52.3969 108.304 51.9622 108.276 51.5502C108.387 51.5077 108.52 51.4717 108.677 51.4424C108.835 51.4051 108.986 51.3826 109.132 51.3748C109.279 51.3591 109.383 51.3601 109.444 51.3777C109.49 51.3909 109.533 51.4527 109.573 51.5631C109.47 52.4244 109.375 53.2551 109.289 54.0553C109.211 54.8577 109.121 55.628 109.02 56.3661C108.946 56.9223 108.857 57.3628 108.752 57.6876C108.657 58.0068 108.522 58.2195 108.346 58.3257C108.177 58.4342 107.943 58.4454 107.643 58.3595L106.34 57.9858ZM112.372 52.613C112.334 52.9239 112.279 53.2998 112.206 53.7407C112.133 54.1817 112.057 54.6385 111.979 55.1111C111.901 55.5837 111.827 56.0325 111.756 56.4577C111.687 56.8749 111.631 57.222 111.59 57.499C111.547 57.7918 111.502 58.1004 111.454 58.4248C111.407 58.7414 111.362 59.0173 111.319 59.2525C111.284 59.4899 111.263 59.6363 111.254 59.6917C111.198 59.7497 111.087 59.7674 110.922 59.7448C110.763 59.7324 110.635 59.7079 110.536 59.6713C110.666 58.6856 110.775 57.752 110.866 56.8705C110.965 55.9833 111.04 55.1719 111.093 54.4363C111.154 53.695 111.192 53.0584 111.207 52.5264C111.41 52.4527 111.612 52.4157 111.812 52.4154C112.014 52.4072 112.161 52.4163 112.253 52.4428C112.284 52.4516 112.324 52.5084 112.372 52.613ZM116.096 60.7825C116.057 60.7715 116.007 60.8148 115.944 60.9123C115.889 61.0121 115.824 61.1294 115.748 61.2644C115.678 61.4094 115.598 61.5432 115.508 61.6658C115.426 61.7906 115.337 61.8765 115.242 61.9235C114.458 62.2927 113.539 62.652 112.485 63.0016C111.423 63.3569 110.131 63.7166 108.61 64.0808C108.544 63.9875 108.519 63.8816 108.537 63.7629C109.095 63.5105 109.685 63.2381 110.305 62.9458C110.916 62.6592 111.516 62.3692 112.105 62.076C112.686 61.7805 113.216 61.4996 113.696 61.233C114.177 60.9665 114.561 60.7222 114.851 60.4999C115.148 60.2799 115.307 60.0986 115.328 59.9562C115.404 59.4418 115.41 58.9403 115.346 58.4518C115.289 57.9654 115.221 57.587 115.141 57.3165C115.337 57.2327 115.524 57.1625 115.701 57.1059C115.885 57.0516 116.011 57.0174 116.077 57.0033C116.146 57.0232 116.19 57.0522 116.208 57.0905C116.234 57.131 116.248 57.1761 116.248 57.2257C116.268 57.5283 116.278 57.8405 116.278 58.1623C116.287 58.4864 116.286 58.7586 116.278 58.9788C116.259 59.2127 116.269 59.364 116.307 59.4326C116.345 59.5012 116.426 59.5532 116.549 59.5885L117.31 59.8067L117.122 61.0768L116.096 60.7825ZM118.589 58.9485C118.636 58.632 118.719 58.3711 118.837 58.1658C118.956 57.9606 119.139 57.8069 119.386 57.7046C119.634 57.6024 119.97 57.5503 120.395 57.5484C120.571 57.5495 120.805 57.567 121.097 57.6011C121.396 57.6374 121.718 57.6843 122.062 57.7417C122.415 57.7934 122.767 57.8531 123.118 57.9206C123.476 57.9904 123.807 58.0604 124.109 58.1305C124.42 58.195 124.676 58.2558 124.876 58.3132C125.032 58.3911 125.142 58.5422 125.205 58.7665C125.269 58.9908 125.298 59.2549 125.293 59.5587C125.289 59.8546 125.264 60.1608 125.217 60.4774C125.193 60.6436 125.163 60.8166 125.129 60.9964C125.094 61.1762 125.067 61.3294 125.049 61.456C125.019 61.6538 125.014 61.8007 125.032 61.8966C125.058 61.9867 125.133 62.0494 125.256 62.0847L126.306 62.3857L126.118 63.6558L116.648 60.9407L116.835 59.6706C117.274 59.7963 117.6 59.89 117.816 59.9517C118.039 60.0156 118.173 60.0542 118.219 60.0675C118.304 60.0917 118.372 60.0122 118.423 59.8289C118.474 59.6456 118.53 59.3521 118.589 58.9485ZM119.408 60.4081L123.884 61.6912C124.022 61.7309 124.113 61.7116 124.157 61.6334C124.208 61.5573 124.252 61.3967 124.288 61.1513C124.364 60.637 124.379 60.2371 124.333 59.9517C124.295 59.6685 124.174 59.5061 123.972 59.4646C123.137 59.2582 122.442 59.1044 121.888 59.0033C121.334 58.9021 120.885 58.8437 120.543 58.8281C120.209 58.8067 119.954 58.8283 119.776 58.8927C119.599 58.9493 119.473 59.0451 119.397 59.18C119.328 59.3171 119.28 59.4846 119.25 59.6825C119.205 59.9911 119.189 60.1804 119.203 60.2503C119.224 60.3224 119.292 60.375 119.408 60.4081ZM125.66 63.5243L125.848 62.2542L126.678 62.4923C126.847 62.5408 126.975 62.5484 127.06 62.515C127.152 62.4839 127.223 62.3846 127.272 62.2171C127.328 62.0518 127.382 61.7951 127.434 61.4469C127.516 60.8929 127.662 60.469 127.874 60.175C128.087 59.8731 128.328 59.6783 128.598 59.5905C128.876 59.4971 129.142 59.4868 129.396 59.5595C129.658 59.6345 129.892 59.7842 130.099 60.0086C130.314 60.2352 130.472 60.5486 130.574 60.9488C130.676 61.3411 130.685 61.8261 130.599 62.4038C130.494 63.116 130.319 63.6762 130.074 64.0845C129.831 64.4849 129.521 64.6311 129.144 64.523L125.66 63.5243ZM128.122 61.7554C128.055 62.2065 128.077 62.522 128.186 62.7019C128.296 62.8819 128.501 63.0148 128.801 63.1008C129.139 63.1978 129.379 63.2006 129.521 63.1093C129.67 63.0201 129.777 62.758 129.842 62.3227C129.898 61.9429 129.856 61.6298 129.716 61.3834C129.577 61.1292 129.392 60.969 129.162 60.9028C128.946 60.8411 128.733 60.8748 128.521 61.0039C128.311 61.1251 128.178 61.3756 128.122 61.7554ZM136.552 64.4073C136.574 64.2569 136.596 64.0817 136.618 63.8817C136.648 63.6759 136.663 63.4946 136.662 63.3376C136.654 63.1784 136.626 63.0922 136.58 63.079C136.503 63.0569 136.373 63.0731 136.188 63.1275C136.012 63.1841 135.815 63.2679 135.598 63.379C135.382 63.4821 135.172 63.6033 134.967 63.7425C134.763 63.8738 134.591 64.01 134.45 64.151C134.309 64.292 134.23 64.418 134.214 64.5287C134.205 64.5841 134.323 64.655 134.567 64.7414C134.811 64.8278 135.202 64.9442 135.742 65.0906C135.95 65.1501 136.102 65.1733 136.201 65.1602C136.306 65.1493 136.38 65.0878 136.42 64.9757C136.47 64.8579 136.514 64.6684 136.552 64.4073ZM137.484 65.5899L138.384 65.8479L138.196 67.118C136.819 66.7234 135.704 66.4037 134.851 66.159C134.005 65.9165 133.316 65.7192 132.786 65.567C132.723 65.2851 132.692 65.0329 132.693 64.8105C132.694 64.588 132.708 64.3818 132.736 64.1918C132.751 64.089 132.848 63.9516 133.026 63.7799C133.204 63.6002 133.429 63.4089 133.7 63.2059C133.978 63.0052 134.276 62.8061 134.593 62.6085C134.911 62.4109 135.222 62.2359 135.525 62.0836C135.829 61.9233 136.099 61.8028 136.336 61.7221C136.573 61.6335 136.746 61.6046 136.854 61.6355C136.892 61.6465 136.96 61.7031 137.057 61.8051C137.163 61.9015 137.271 62.0109 137.381 62.1332C137.491 62.2555 137.571 62.3651 137.621 62.4618C137.604 62.6878 137.577 62.9523 137.54 63.2552C137.512 63.5524 137.478 63.8395 137.437 64.1165C137.404 64.3957 137.375 64.6183 137.35 64.7845C137.3 65.1248 137.284 65.3389 137.303 65.4269C137.324 65.5069 137.384 65.5613 137.484 65.5899ZM134.465 60.3072C134.435 60.1256 134.432 59.9308 134.455 59.7229C134.486 59.5092 134.555 59.2608 134.661 58.9777C134.916 58.985 135.148 59.0184 135.356 59.0779C135.572 59.1317 135.742 59.2051 135.864 59.2979C135.92 59.6273 135.855 60.0665 135.67 60.6155C135.415 60.6004 135.176 60.5648 134.952 60.5088C134.729 60.4448 134.566 60.3777 134.465 60.3072ZM136.223 60.6133C136.193 60.4396 136.192 60.2499 136.223 60.0442C136.254 59.8305 136.319 59.581 136.418 59.2957C136.681 59.3052 136.916 59.3397 137.124 59.3992C137.34 59.453 137.507 59.5213 137.623 59.6041C137.677 59.9413 137.612 60.3805 137.428 60.9217C137.181 60.9087 136.942 60.8731 136.71 60.8149C136.487 60.751 136.325 60.6838 136.223 60.6133ZM139.732 67.5584L137.737 66.9863L137.924 65.7162L139.828 66.2618C139.981 66.3059 140.072 66.237 140.099 66.055C140.121 65.9046 140.115 65.7257 140.082 65.5181C140.05 65.3026 140.005 65.0917 139.947 64.8855C139.898 64.6735 139.852 64.4954 139.809 64.3511C140.004 64.2831 140.177 64.2255 140.328 64.1781C140.487 64.1329 140.624 64.0981 140.74 64.0736C140.809 64.0934 140.853 64.1225 140.872 64.1607C140.898 64.2012 140.911 64.2463 140.912 64.296C140.946 64.5532 140.957 64.8287 140.946 65.1224C140.935 65.4161 140.908 65.7014 140.868 65.9784C140.818 66.3108 140.747 66.6077 140.652 66.8693C140.565 67.133 140.444 67.3293 140.288 67.458C140.141 67.5889 139.955 67.6224 139.732 67.5584ZM137.381 69.3096C137.352 69.128 137.353 68.9303 137.385 68.7167C137.407 68.5087 137.472 68.2632 137.578 67.9801C137.833 67.9874 138.065 68.0168 138.274 68.0684C138.489 68.1301 138.658 68.2074 138.781 68.3003C138.837 68.6297 138.772 69.0689 138.586 69.6179C138.332 69.6028 138.093 69.5632 137.87 69.4993C137.646 69.4433 137.483 69.38 137.381 69.3096ZM139.14 69.6157C139.109 69.442 139.11 69.2483 139.141 69.0347C139.172 68.8289 139.236 68.5834 139.334 68.2981C139.598 68.3076 139.834 68.3381 140.042 68.3897C140.258 68.4514 140.423 68.5237 140.539 68.6064C140.594 68.9437 140.529 69.3829 140.345 69.924C140.098 69.9111 139.86 69.8715 139.629 69.8054C139.405 69.7494 139.242 69.6861 139.14 69.6157ZM143.718 69.9508C143.158 70.219 142.55 70.4779 141.896 70.7276C141.25 70.9795 140.532 71.2273 139.742 71.4712C138.945 71.7128 138.046 71.9664 137.045 72.2321C136.972 72.1287 136.943 72.0216 136.96 71.9108C137.51 71.6562 138.093 71.3777 138.706 71.0753C139.319 70.7807 139.925 70.48 140.523 70.1731C141.113 69.872 141.653 69.5774 142.145 69.2893C142.635 69.0092 143.031 68.7473 143.331 68.5035C143.633 68.2518 143.796 68.0428 143.82 67.8766C143.885 67.4414 143.885 67.0083 143.82 66.5773C143.755 66.1464 143.676 65.7647 143.58 65.4322C143.751 65.3655 143.928 65.305 144.112 65.2506C144.304 65.1984 144.433 65.1653 144.5 65.1513C144.569 65.1711 144.613 65.2002 144.631 65.2385C144.657 65.2789 144.674 65.3251 144.683 65.377C144.713 65.658 144.728 66.021 144.726 66.466C144.732 66.9131 144.704 67.3464 144.642 67.7658C144.6 68.0507 144.532 68.3488 144.438 68.66C144.352 68.9734 144.247 69.2486 144.124 69.4855C144.007 69.7325 143.872 69.8876 143.718 69.9508ZM149.821 68.8298C149.835 68.7348 149.84 68.5959 149.835 68.413C149.831 68.2221 149.819 68.0291 149.8 67.8339C149.782 67.6307 149.76 67.4553 149.734 67.3075C149.707 67.1597 149.671 67.0793 149.625 67.066C149.579 67.0528 149.489 67.089 149.357 67.1746C149.231 67.2625 149.083 67.3725 148.911 67.5047C148.74 67.629 148.576 67.7634 148.419 67.9079C148.262 68.0446 148.133 68.1601 148.031 68.2546C147.955 68.3319 147.915 68.3864 147.91 68.418C147.899 68.4972 148.018 68.581 148.27 68.6696C148.53 68.7525 148.922 68.8689 149.445 69.0188C149.583 69.0585 149.675 69.0601 149.721 69.0236C149.774 68.9894 149.807 68.9248 149.821 68.8298ZM150.667 68.8865C150.651 69.1046 150.662 69.244 150.701 69.3047C150.74 69.3654 150.837 69.4178 150.991 69.4619L151.798 69.6934L151.611 70.9635L150.561 70.6626C150.484 70.6405 150.426 70.6528 150.387 70.6994C150.348 70.746 150.303 70.8321 150.253 70.9578C150.168 71.1481 150.083 71.3176 149.997 71.4661C149.918 71.6248 149.84 71.7179 149.763 71.7456C148.847 72.1428 147.85 72.5168 146.772 72.8677C145.693 73.2265 144.465 73.588 143.089 73.9523C143.008 73.8467 142.975 73.7425 142.99 73.6396C143.558 73.3815 144.134 73.1138 144.72 72.8364C145.298 72.5647 145.859 72.2885 146.406 72.008C146.951 71.7354 147.456 71.4636 147.921 71.1927C148.386 70.9218 148.781 70.6638 149.106 70.4187C149.194 70.3616 149.24 70.3212 149.244 70.2975C149.246 70.2816 149.201 70.2605 149.109 70.234C148.709 70.1194 148.351 70.0208 148.034 69.9384C147.727 69.8502 147.431 69.7653 147.146 69.6837C146.869 69.6044 146.565 69.5173 146.235 69.4225C146.181 69.2422 146.159 69.0419 146.167 68.8216C146.176 68.6013 146.195 68.3883 146.226 68.1825C146.349 68.0529 146.517 67.8948 146.729 67.7081C146.949 67.5157 147.195 67.318 147.465 67.1151C147.737 66.9042 148.007 66.7053 148.275 66.5182C148.544 66.3232 148.794 66.1554 149.023 66.0149C149.253 65.8665 149.432 65.7653 149.561 65.7113C149.701 65.6854 149.872 65.6684 150.073 65.6602C150.275 65.6521 150.43 65.6634 150.537 65.6943C150.614 65.7163 150.658 65.7454 150.669 65.7814C150.704 66.2453 150.718 66.7483 150.71 67.2905C150.702 67.8326 150.688 68.3646 150.667 68.8865ZM157.983 67.8286C157.981 68.0014 157.968 68.2285 157.942 68.5099C157.918 68.7834 157.889 69.0597 157.856 69.3389C157.824 69.6101 157.794 69.8368 157.767 70.0188C157.701 70.4699 157.666 70.8106 157.664 71.041C157.664 71.2635 157.721 71.3913 157.836 71.4243L159.036 71.7683L158.848 73.0384L151.154 70.8326L151.341 69.5625L152.599 69.923C152.737 69.9626 152.831 69.9275 152.879 69.8177C152.936 69.7021 152.979 69.5453 153.009 69.3475C153.041 69.1259 153.07 68.8744 153.096 68.5931C153.13 68.306 153.165 68.0149 153.201 67.7199C153.236 67.4249 153.272 67.1547 153.309 66.9094C153.327 66.7828 153.365 66.6905 153.422 66.6325C153.478 66.5745 153.593 66.5579 153.766 66.5827C153.938 66.6074 154.206 66.6716 154.567 66.7752C154.721 66.8193 154.951 66.8894 155.257 66.9855C155.564 67.0816 155.893 67.1843 156.246 67.2937C156.599 67.403 156.932 67.5068 157.246 67.6051C157.56 67.7034 157.806 67.7779 157.983 67.8286ZM157.004 69.4905C157.033 69.1854 156.988 68.9745 156.869 68.8579C156.751 68.7334 156.53 68.6248 156.207 68.5322C156.092 68.4992 156.017 68.4941 155.981 68.5169C155.955 68.534 155.932 68.6059 155.913 68.7325C155.899 68.8275 155.876 68.9818 155.845 69.1955C155.821 69.4113 155.796 69.6351 155.77 69.8668C155.745 70.0906 155.724 70.2579 155.708 70.3687C155.69 70.4874 155.692 70.5828 155.713 70.6549C155.736 70.7191 155.807 70.7807 155.926 70.8398C156.054 70.901 156.26 70.9724 156.544 71.0539C156.636 71.0804 156.704 71.0873 156.746 71.0746C156.789 71.0539 156.817 70.9961 156.831 70.9012C156.859 70.7112 156.89 70.4767 156.923 70.1975C156.964 69.9205 156.991 69.6849 157.004 69.4905ZM155.077 68.9383C155.098 68.6309 155.05 68.419 154.931 68.3024C154.82 68.18 154.6 68.0715 154.269 67.9767C154.154 67.9436 154.078 67.9385 154.043 67.9613C154.016 67.9785 153.994 68.0503 153.975 68.1769C153.961 68.2719 153.942 68.4313 153.917 68.6551C153.891 68.8788 153.863 69.1015 153.83 69.3231C153.805 69.5469 153.785 69.7102 153.769 69.8131C153.752 69.9318 153.754 70.0272 153.775 70.0993C153.798 70.1636 153.869 70.2252 153.988 70.2842C154.116 70.3454 154.325 70.4179 154.618 70.5017C154.71 70.5281 154.777 70.535 154.819 70.5223C154.862 70.5017 154.891 70.4439 154.905 70.3489C154.935 70.1431 154.966 69.9046 154.998 69.6334C155.031 69.3621 155.057 69.1304 155.077 68.9383ZM158.375 72.9027L158.563 71.6326L159.393 71.8707C159.562 71.9192 159.69 71.9268 159.775 71.8934C159.867 71.8623 159.938 71.763 159.987 71.5955C160.044 71.4302 160.098 71.1735 160.149 70.8253C160.231 70.2713 160.378 69.8474 160.589 69.5534C160.802 69.2515 161.044 69.0567 161.313 68.9689C161.591 68.8755 161.857 68.8652 162.111 68.9379C162.373 69.0129 162.607 69.1626 162.814 69.387C163.031 69.6057 163.187 69.9061 163.282 70.2883C163.386 70.6727 163.399 71.1299 163.32 71.6602C163.269 72.0084 163.241 72.2807 163.236 72.4773C163.24 72.6681 163.275 72.8101 163.341 72.9034C163.416 72.991 163.539 73.059 163.708 73.1075L164.538 73.3456L164.351 74.6157L158.375 72.9027ZM161.516 72.4792C161.77 72.5519 161.962 72.5822 162.092 72.57C162.231 72.5521 162.33 72.4774 162.389 72.346C162.458 72.2089 162.513 71.9979 162.555 71.713C162.612 71.3252 162.571 71.0081 162.431 70.7618C162.292 70.5076 162.107 70.3474 161.877 70.2812C161.661 70.2195 161.448 70.2532 161.236 70.3823C161.026 70.5035 160.892 70.7579 160.835 71.1457C160.772 71.573 160.787 71.8784 160.88 72.0618C160.981 72.2475 161.193 72.3866 161.516 72.4792ZM169.629 74.4212C169.645 74.3105 169.644 74.1535 169.626 73.9503C169.617 73.7415 169.589 73.548 169.543 73.3699C169.498 73.1918 169.432 73.0906 169.348 73.0663C169.055 72.9825 168.726 72.9335 168.359 72.9191C168.002 72.899 167.636 72.8807 167.261 72.8641C166.887 72.8476 166.546 72.7952 166.238 72.707C165.992 72.6365 165.816 72.5033 165.708 72.3076C165.601 72.1118 165.536 71.8994 165.514 71.6703C165.5 71.4355 165.507 71.2271 165.534 71.0451C165.662 71.0984 165.799 71.1499 165.944 71.1997C166.089 71.2495 166.25 71.2998 166.427 71.3505C166.911 71.4894 167.366 71.5827 167.792 71.6306C168.227 71.6727 168.615 71.7055 168.956 71.7291C169.306 71.747 169.597 71.789 169.827 71.8551C169.943 71.8882 170.03 72 170.09 72.1904C170.159 72.3751 170.215 72.6757 170.258 73.0921C170.308 73.5107 170.355 74.0892 170.398 74.8275C170.402 74.911 170.429 74.9724 170.479 75.0116C170.537 75.0529 170.593 75.0813 170.647 75.0968L170.762 75.1298C170.812 75.2842 170.853 75.4691 170.885 75.6846C170.917 75.9001 170.922 76.083 170.9 76.2334C170.884 76.3442 170.858 76.411 170.822 76.4338C170.788 76.4487 170.752 76.4507 170.713 76.4397L163.884 74.4819L164.072 73.2118L169.39 74.7363C169.443 74.7518 169.489 74.7441 169.525 74.7133C169.57 74.6848 169.604 74.5874 169.629 74.4212ZM166.465 77.6841C166.432 77.4765 166.43 77.245 166.459 76.9896C166.496 76.7443 166.575 76.4495 166.698 76.1053C167.009 76.1201 167.291 76.1599 167.546 76.2247C167.809 76.2918 168.009 76.3779 168.146 76.4831C168.216 76.8745 168.138 77.4007 167.912 78.0619C167.618 78.0436 167.333 77.9948 167.056 77.9154C166.786 77.8462 166.589 77.7691 166.465 77.6841Z" fill="#E7ECF1"/>
<path d="M104.431 154.239C103.666 154.02 102.906 153.763 102.152 153.469C96.3586 151.209 91.3393 146.83 89.051 142.042C88.3431 140.561 88.8934 138.648 90.2795 137.769C91.6658 136.89 93.3627 137.378 94.0706 138.859C95.7524 142.378 99.7757 145.798 104.32 147.572C108.273 149.114 114.418 150.179 121.244 146.491C122.676 145.717 124.331 146.337 124.941 147.875C125.55 149.414 124.883 151.288 123.452 152.062C117.443 155.31 110.773 156.057 104.431 154.239Z" fill="#324134" stroke="#324134" stroke-miterlimit="10" stroke-linecap="round" stroke-linejoin="round"/>
<path d="M95.3063 138.777C95.4525 137.712 94.5327 137.322 93.6962 138.051C92.8597 138.78 92.7863 140.057 92.7863 140.057C92.7863 140.057 95.0974 140.295 95.3063 138.777Z" fill="white" stroke="#F6C90E" stroke-miterlimit="10" stroke-linecap="round" stroke-linejoin="round"/>
<path d="M101.896 144.328C102.675 143.703 103.396 144.456 103.193 145.626C102.99 146.795 102.009 147.442 102.009 147.442C102.009 147.442 100.786 145.217 101.896 144.328Z" fill="white" stroke="#F6C90E" stroke-miterlimit="10" stroke-linecap="round" stroke-linejoin="round"/>
<path d="M111.277 107.53C108.306 106.905 105.59 104.526 104.372 102.826C102.675 100.459 99.5546 99.7396 97.3597 107.392C95.1648 115.045 88.8406 137.094 88.8406 137.094L112.048 126.314" stroke="#F6C90E" stroke-miterlimit="10" stroke-linecap="round" stroke-linejoin="round"/>
<mask id="mask0_194_1463" style="mask-type:luminance" maskUnits="userSpaceOnUse" x="88" y="105" width="20" height="33">
<path d="M97.2291 107.854L100.642 105.995C100.642 105.995 101.416 109.04 105.543 111.394C109.671 113.748 105.934 129.155 105.934 129.155L88.8417 137.094L97.2284 107.854L97.2291 107.854Z" fill="white"/>
</mask>
<g mask="url(#mask0_194_1463)">
<path d="M100.24 104.923L98.2344 104.349L88.5008 138.285L90.506 138.859L100.24 104.923Z" fill="#F6C90E"/>
</g>
<mask id="mask1_194_1463" style="mask-type:luminance" maskUnits="userSpaceOnUse" x="88" y="105" width="20" height="33">
<path d="M97.2291 107.854L100.642 105.995C100.642 105.995 101.416 109.04 105.543 111.394C109.671 113.748 105.934 129.155 105.934 129.155L88.8417 137.094L97.2284 107.854L97.2291 107.854Z" fill="white"/>
</mask>
<g mask="url(#mask1_194_1463)">
<path d="M103.129 104.89L101.124 104.315L91.8218 136.747L93.827 137.321L103.129 104.89Z" fill="#F6C90E"/>
</g>
<mask id="mask2_194_1463" style="mask-type:luminance" maskUnits="userSpaceOnUse" x="88" y="105" width="20" height="33">
<path d="M97.2291 107.854L100.642 105.995C100.642 105.995 101.416 109.04 105.543 111.394C109.671 113.748 105.934 129.155 105.934 129.155L88.8417 137.094L97.2284 107.854L97.2291 107.854Z" fill="white"/>
</mask>
<g mask="url(#mask2_194_1463)">
<path d="M104.688 109.493L102.683 108.918L93.6836 140.293L95.6887 140.868L104.688 109.493Z" fill="#F6C90E"/>
</g>
<mask id="mask3_194_1463" style="mask-type:luminance" maskUnits="userSpaceOnUse" x="88" y="105" width="20" height="33">
<path d="M97.2291 107.854L100.642 105.995C100.642 105.995 101.416 109.04 105.543 111.394C109.671 113.748 105.934 129.155 105.934 129.155L88.8417 137.094L97.2284 107.854L97.2291 107.854Z" fill="white"/>
</mask>
<g mask="url(#mask3_194_1463)">
<path d="M107.349 110.256L105.344 109.681L96.3447 141.056L98.3499 141.631L107.349 110.256Z" fill="#F6C90E"/>
</g>
<mask id="mask4_194_1463" style="mask-type:luminance" maskUnits="userSpaceOnUse" x="88" y="105" width="20" height="33">
<path d="M97.2291 107.854L100.642 105.995C100.642 105.995 101.416 109.04 105.543 111.394C109.671 113.748 105.934 129.155 105.934 129.155L88.8417 137.094L97.2284 107.854L97.2291 107.854Z" fill="white"/>
</mask>
<g mask="url(#mask4_194_1463)">
<path d="M110.008 111.018L108.003 110.444L99.0039 141.819L101.009 142.393L110.008 111.018Z" fill="#F6C90E"/>
</g>
<path d="M101.108 144.37L95.7529 139.905L106.455 122.954L111.81 127.418L101.108 144.37Z" fill="white"/>
<mask id="mask5_194_1463" style="mask-type:luminance" maskUnits="userSpaceOnUse" x="95" y="122" width="17" height="23">
<path d="M101.108 144.37L95.7529 139.905L106.455 122.954L111.81 127.419L101.108 144.37Z" fill="white"/>
</mask>
<g mask="url(#mask5_194_1463)">
<path d="M104.646 124.943L103.266 129.647L106.41 127.559L105.05 131.566L108.418 129.686L106.639 133.66L110.166 132.015" stroke="#F6C90E" stroke-miterlimit="10" stroke-linecap="round" stroke-linejoin="round"/>
</g>
<mask id="mask6_194_1463" style="mask-type:luminance" maskUnits="userSpaceOnUse" x="95" y="122" width="17" height="23">
<path d="M101.108 144.37L95.7529 139.905L106.455 122.954L111.81 127.419L101.108 144.37Z" fill="white"/>
</mask>
<g mask="url(#mask6_194_1463)">
<path d="M99.5049 132.436L102.892 130.567L101.854 134.185L104.687 132.316L103.317 136.062L106.145 134.512L104.86 139.186" stroke="#F6C90E" stroke-miterlimit="10" stroke-linecap="round" stroke-linejoin="round"/>
</g>
<mask id="mask7_194_1463" style="mask-type:luminance" maskUnits="userSpaceOnUse" x="95" y="122" width="17" height="23">
<path d="M101.108 144.37L95.7529 139.905L106.455 122.954L111.81 127.419L101.108 144.37Z" fill="white"/>
</mask>
<g mask="url(#mask7_194_1463)">
<path d="M99.9023 131.955L98.7813 137.012L101.375 134.988L100.354 138.929L102.995 136.754L102.402 140.723L105.844 138.778" stroke="#F6C90E" stroke-miterlimit="10" stroke-linecap="round" stroke-linejoin="round"/>
</g>
<mask id="mask8_194_1463" style="mask-type:luminance" maskUnits="userSpaceOnUse" x="95" y="122" width="17" height="23">
<path d="M101.108 144.37L95.7529 139.905L106.455 122.954L111.81 127.419L101.108 144.37Z" fill="white"/>
</mask>
<g mask="url(#mask8_194_1463)">
<path d="M94.3916 140.132L98.356 137.838L97.0476 142.152L100.178 139.654L99.1614 143.578L102.09 141.323L101.108 144.37" stroke="#F6C90E" stroke-miterlimit="10" stroke-linecap="round" stroke-linejoin="round"/>
</g>
<path d="M101.108 144.37L95.7529 139.905L106.455 122.954L111.81 127.418L101.108 144.37Z" stroke="#F6C90E" stroke-miterlimit="10" stroke-linecap="round" stroke-linejoin="round"/>
<path d="M109.16 142.143C109.599 139.94 111.2 131.691 111.2 131.691L110.792 131.574L110.725 131.555L110.317 131.438C110.317 131.438 107.302 139.282 106.507 141.383C105.712 143.483 106.491 144.482 106.819 145.266L106.803 145.261C107.498 144.771 108.721 144.346 109.16 142.143Z" fill="#F6C90E"/>
<path d="M105.768 141.026C106.755 139.025 110.413 131.512 110.413 131.512L110.071 131.242L110.015 131.197L109.673 130.928C109.673 130.928 104.83 137.509 103.545 139.276C102.259 141.042 102.706 142.32 102.798 143.215L102.784 143.205C103.55 142.984 104.781 143.026 105.768 141.026Z" fill="#F6C90E"/>
<path d="M101.19 145.994C101.157 145.985 101.125 145.973 101.093 145.96C99.3222 145.22 96.0723 142.924 94.391 140.132C94.0565 139.577 94.1959 138.753 94.7012 138.291C95.2072 137.829 95.8878 137.904 96.2215 138.459C97.5887 140.728 100.464 142.834 102.015 143.481C102.565 143.711 102.804 144.452 102.549 145.136C102.31 145.781 101.718 146.145 101.19 145.994Z" fill="white" stroke="#F6C90E" stroke-miterlimit="10" stroke-linecap="round" stroke-linejoin="round"/>
<path d="M98.5392 143.513C98.0783 144.193 96.7172 144.421 96.7172 144.421C96.7172 144.421 96.587 142.834 97.0478 142.153C97.5086 141.473 97.9744 141.583 98.3863 141.959C98.7982 142.334 99 142.832 98.5392 143.513Z" fill="white" stroke="#F6C90E" stroke-miterlimit="10" stroke-linecap="round" stroke-linejoin="round"/>
<path d="M120.048 145.869C120.489 144.888 121.475 145.046 121.799 146.107C122.122 147.168 121.506 148.29 121.506 148.29C121.506 148.29 119.42 147.267 120.048 145.869Z" fill="white" stroke="#F6C90E" stroke-miterlimit="10" stroke-linecap="round" stroke-linejoin="round"/>
<path d="M111.517 147.086C111.187 146.144 110.177 146.4 109.729 147.499C109.281 148.599 109.771 149.667 109.771 149.667C109.771 149.667 111.987 148.428 111.517 147.086Z" fill="white" stroke="#F6C90E" stroke-miterlimit="10" stroke-linecap="round" stroke-linejoin="round"/>
<path d="M123.066 110.91C125.917 111.953 129.481 111.375 131.416 110.578C134.109 109.47 137.137 110.513 134.942 118.166C132.747 125.818 126.423 147.867 126.423 147.867L112.456 126.431" stroke="#F6C90E" stroke-miterlimit="10" stroke-linecap="round" stroke-linejoin="round"/>
<mask id="mask9_194_1463" style="mask-type:luminance" maskUnits="userSpaceOnUse" x="116" y="115" width="19" height="33">
<path d="M134.807 118.627L132.899 115.243C132.899 115.243 130.628 117.416 125.88 117.225C121.131 117.035 116.134 132.08 116.134 132.08L126.421 147.868L134.808 118.628L134.807 118.627Z" fill="white"/>
</mask>
<g mask="url(#mask9_194_1463)">
<path d="M135.814 115.122L133.809 114.547L124.075 148.483L126.08 149.058L135.814 115.122Z" fill="#F6C90E"/>
</g>
<mask id="mask10_194_1463" style="mask-type:luminance" maskUnits="userSpaceOnUse" x="116" y="115" width="19" height="33">
<path d="M134.807 118.627L132.899 115.243C132.899 115.243 130.628 117.416 125.88 117.225C121.131 117.035 116.134 132.08 116.134 132.08L126.421 147.868L134.808 118.628L134.807 118.627Z" fill="white"/>
</mask>
<g mask="url(#mask10_194_1463)">
<path d="M133.381 113.562L131.376 112.988L122.074 145.419L124.079 145.994L133.381 113.562Z" fill="#F6C90E"/>
</g>
<mask id="mask11_194_1463" style="mask-type:luminance" maskUnits="userSpaceOnUse" x="116" y="115" width="19" height="33">
<path d="M134.807 118.627L132.899 115.243C132.899 115.243 130.628 117.416 125.88 117.225C121.131 117.035 116.134 132.08 116.134 132.08L126.421 147.868L134.808 118.628L134.807 118.627Z" fill="white"/>
</mask>
<g mask="url(#mask11_194_1463)">
<path d="M129.617 116.64L127.612 116.066L118.613 147.441L120.618 148.016L129.617 116.64Z" fill="#F6C90E"/>
</g>
<mask id="mask12_194_1463" style="mask-type:luminance" maskUnits="userSpaceOnUse" x="116" y="115" width="19" height="33">
<path d="M134.807 118.627L132.899 115.243C132.899 115.243 130.628 117.416 125.88 117.225C121.131 117.035 116.134 132.08 116.134 132.08L126.421 147.868L134.808 118.628L134.807 118.627Z" fill="white"/>
</mask>
<g mask="url(#mask12_194_1463)">
<path d="M126.958 115.878L124.953 115.303L115.954 146.678L117.959 147.253L126.958 115.878Z" fill="#F6C90E"/>
</g>
<mask id="mask13_194_1463" style="mask-type:luminance" maskUnits="userSpaceOnUse" x="116" y="115" width="19" height="33">
<path d="M134.807 118.627L132.899 115.243C132.899 115.243 130.628 117.416 125.88 117.225C121.131 117.035 116.134 132.08 116.134 132.08L126.421 147.868L134.808 118.628L134.807 118.627Z" fill="white"/>
</mask>
<g mask="url(#mask13_194_1463)">
<path d="M124.296 115.115L122.291 114.54L113.292 145.915L115.297 146.49L124.296 115.115Z" fill="#F6C90E"/>
</g>
<path d="M112.162 147.539L119.069 146.589L118.978 126.544L112.071 127.494L112.162 147.539Z" fill="white"/>
<mask id="mask14_194_1463" style="mask-type:luminance" maskUnits="userSpaceOnUse" x="112" y="126" width="8" height="22">
<path d="M112.161 147.539L119.068 146.589L118.977 126.544L112.07 127.494L112.161 147.539Z" fill="white"/>
</mask>
<g mask="url(#mask14_194_1463)">
<path d="M119.459 129.19L118.136 133.91L116.576 130.473L115.605 134.592L113.746 131.214L113.149 135.526L111.029 132.263" stroke="#F6C90E" stroke-miterlimit="10" stroke-linecap="round" stroke-linejoin="round"/>
</g>
<mask id="mask15_194_1463" style="mask-type:luminance" maskUnits="userSpaceOnUse" x="112" y="126" width="8" height="22">
<path d="M112.161 147.539L119.068 146.589L118.977 126.544L112.07 127.494L112.161 147.539Z" fill="white"/>
</mask>
<g mask="url(#mask15_194_1463)">
<path d="M119.845 138.267L117.963 134.887L116.925 138.506L115.514 135.419L114.69 139.323L113.113 136.51L111.726 141.154" stroke="#F6C90E" stroke-miterlimit="10" stroke-linecap="round" stroke-linejoin="round"/>
</g>
<mask id="mask16_194_1463" style="mask-type:luminance" maskUnits="userSpaceOnUse" x="112" y="126" width="8" height="22">
<path d="M112.161 147.539L119.068 146.589L118.977 126.544L112.07 127.494L112.161 147.539Z" fill="white"/>
</mask>
<g mask="url(#mask16_194_1463)">
<path d="M119.764 137.65L118.034 142.532L116.907 139.442L115.684 143.324L114.598 140.081L112.997 143.761L111.109 140.288" stroke="#F6C90E" stroke-miterlimit="10" stroke-linecap="round" stroke-linejoin="round"/>
</g>
<mask id="mask17_194_1463" style="mask-type:luminance" maskUnits="userSpaceOnUse" x="112" y="126" width="8" height="22">
<path d="M112.161 147.539L119.068 146.589L118.977 126.544L112.07 127.494L112.161 147.539Z" fill="white"/>
</mask>
<g mask="url(#mask17_194_1463)">
<path d="M120.104 147.503L117.958 143.457L116.78 147.809L115.45 144.032L114.232 147.898L112.944 144.435L112.162 147.539" stroke="#F6C90E" stroke-miterlimit="10" stroke-linecap="round" stroke-linejoin="round"/>
</g>
<path d="M112.162 147.539L119.069 146.589L118.978 126.544L112.071 127.494L112.162 147.539Z" stroke="#F6C90E" stroke-miterlimit="10" stroke-linecap="round" stroke-linejoin="round"/>
<path d="M109.983 142.234C110.207 140.014 111.087 131.705 111.087 131.705L111.52 131.658L111.592 131.65L112.024 131.602C112.024 131.602 112.642 139.749 112.796 141.928C112.95 144.107 111.894 144.954 111.342 145.664L111.359 145.663C110.826 145.07 109.76 144.454 109.983 142.234Z" fill="#F6C90E"/>
<path d="M116.325 112.294L116.26 112.275C110.586 113.639 105.536 111.415 105.536 111.415C105.536 111.415 102.685 127.643 110.024 134.018L110.088 134.037C119.692 132.519 125.875 117.245 125.875 117.245C125.875 117.245 120.414 116.455 116.325 112.294Z" fill="white" stroke="#F6C90E" stroke-width="0.5" stroke-miterlimit="10" stroke-linecap="round" stroke-linejoin="round"/>
<path d="M110.355 132.987C104.893 127.888 105.781 116.481 106.242 112.746C106.425 112.805 106.629 112.869 106.853 112.933C108.642 113.445 112.159 114.161 115.99 113.343C118.806 116.066 122.167 117.323 123.956 117.836C124.179 117.899 124.386 117.955 124.573 118.001C122.98 121.412 117.679 131.558 110.355 132.987Z" fill="white"/>
<mask id="mask18_194_1463" style="mask-type:luminance" maskUnits="userSpaceOnUse" x="105" y="112" width="20" height="21">
<path d="M110.355 132.988C104.893 127.888 105.781 116.481 106.242 112.746C106.425 112.805 106.629 112.869 106.853 112.933C108.642 113.446 112.159 114.161 115.99 113.344C118.806 116.066 122.167 117.323 123.956 117.836C124.179 117.9 124.386 117.955 124.573 118.001C122.98 121.412 117.679 131.559 110.355 132.988Z" fill="white"/>
</mask>
<g mask="url(#mask18_194_1463)">
<path d="M113.077 111.719L106.833 109.929L100.55 131.836L106.794 133.626L113.077 111.719Z" fill="#F6C90E"/>
</g>
<mask id="mask19_194_1463" style="mask-type:luminance" maskUnits="userSpaceOnUse" x="105" y="112" width="20" height="21">
<path d="M110.355 132.988C104.893 127.888 105.781 116.481 106.242 112.746C106.425 112.805 106.629 112.869 106.853 112.933C108.642 113.446 112.159 114.161 115.99 113.344C118.806 116.066 122.167 117.323 123.956 117.836C124.179 117.9 124.386 117.955 124.573 118.001C122.98 121.412 117.679 131.559 110.355 132.988Z" fill="white"/>
</mask>
<g mask="url(#mask19_194_1463)">
<path d="M125.487 115.277L119.243 113.487L112.96 135.394L119.204 137.184L125.487 115.277Z" fill="#F6C90E"/>
</g>
<path d="M110.355 132.987C104.893 127.888 105.781 116.481 106.242 112.746C106.425 112.805 106.629 112.869 106.853 112.933C108.642 113.445 112.159 114.161 115.99 113.343C118.806 116.066 122.167 117.323 123.956 117.836C124.179 117.899 124.386 117.955 124.573 118.001C122.98 121.412 117.679 131.558 110.355 132.987Z" stroke="#F6C90E" stroke-width="0.5" stroke-miterlimit="10" stroke-linecap="round" stroke-linejoin="round"/>
<path d="M111.231 148.872C111.264 148.882 111.298 148.889 111.332 148.895C113.225 149.206 117.198 148.98 120.104 147.503C120.682 147.209 121.001 146.437 120.817 145.777C120.633 145.118 120.016 144.821 119.438 145.114C117.076 146.315 113.521 146.576 111.863 146.304C111.275 146.207 110.679 146.709 110.532 147.425C110.395 148.098 110.704 148.721 111.231 148.872Z" fill="white" stroke="#F6C90E" stroke-miterlimit="10" stroke-linecap="round" stroke-linejoin="round"/>
<path d="M114.795 148.173C114.826 148.994 115.859 149.908 115.859 149.908C115.859 149.908 116.811 148.631 116.781 147.81C116.751 146.989 116.297 146.835 115.749 146.936C115.201 147.036 114.765 147.351 114.795 148.173Z" fill="white" stroke="#F6C90E" stroke-miterlimit="10" stroke-linecap="round" stroke-linejoin="round"/>
<mask id="mask20_194_1463" style="mask-type:luminance" maskUnits="userSpaceOnUse" x="110" y="94" width="14" height="18">
<path d="M120.875 109.954L123.336 111.829C123.336 111.829 120.902 106.225 122.611 100.297C123.12 98.5199 124.43 95.2632 122.751 94.7817C121.818 94.5143 121.282 94.3609 120.222 94.0568C119.161 93.7527 118.55 95.2868 118.55 95.2868C118.55 95.2868 118.129 95.166 117.115 94.8755C116.102 94.5851 115.006 97.1556 115.006 97.1556C115.006 97.1556 118.185 95.7165 117.312 98.7778C115.619 104.711 110.584 108.173 110.584 108.173L113.665 107.887L120.875 109.954Z" fill="white"/>
</mask>
<g mask="url(#mask20_194_1463)">
<path d="M115.716 97.0465C116.669 95.6486 118.324 96.1836 118.87 96.7677C119.417 97.3517 118.366 98.8665 117.379 98.6905L115.716 97.0465Z" fill="#F6C90E"/>
</g>
<mask id="mask21_194_1463" style="mask-type:luminance" maskUnits="userSpaceOnUse" x="110" y="94" width="14" height="18">
<path d="M120.875 109.954L123.336 111.829C123.336 111.829 120.902 106.225 122.611 100.297C123.12 98.5199 124.43 95.2632 122.751 94.7817C121.818 94.5143 121.282 94.3609 120.222 94.0568C119.161 93.7527 118.55 95.2868 118.55 95.2868C118.55 95.2868 118.129 95.166 117.115 94.8755C116.102 94.5851 115.006 97.1556 115.006 97.1556C115.006 97.1556 118.185 95.7165 117.312 98.7778C115.619 104.711 110.584 108.173 110.584 108.173L113.665 107.887L120.875 109.954Z" fill="white"/>
</mask>
<g mask="url(#mask21_194_1463)">
<path d="M123.241 94.9218C123.237 95.0414 123.239 94.9165 121.501 95.5978C119.357 96.4379 118.415 95.3325 118.415 95.3325C118.415 95.3325 118.305 92.9497 119.599 93.0097C120.891 93.0701 123.26 94.3188 123.241 94.9218Z" fill="#F6C90E"/>
</g>
<path d="M120.875 109.954L123.336 111.828C123.336 111.828 120.902 106.225 122.611 100.296C123.12 98.5194 124.43 95.2627 122.751 94.7813C121.818 94.5138 121.282 94.3604 120.222 94.0563C119.161 93.7522 118.55 95.2863 118.55 95.2863C118.55 95.2863 118.129 95.1655 117.115 94.875C116.102 94.5846 115.006 97.1551 115.006 97.1551C115.006 97.1551 118.185 95.7161 117.312 98.7773C115.619 104.71 110.584 108.173 110.584 108.173L113.665 107.887L120.875 109.954Z" stroke="#F6C90E" stroke-miterlimit="10" stroke-linecap="round" stroke-linejoin="round"/>
<path d="M121.111 95.9668C121.019 96.2887 120.732 96.4887 120.47 96.4138C120.209 96.3388 120.072 96.0172 120.164 95.6953C120.256 95.3734 120.543 95.1733 120.805 95.2483C121.066 95.3233 121.203 95.6449 121.111 95.9668Z" fill="white" stroke="#F6C90E" stroke-width="0.5" stroke-miterlimit="10" stroke-linecap="round" stroke-linejoin="round"/>
<path d="M119.016 146.779C119.389 146.655 119.701 146.521 119.93 146.379" stroke="#F6C90E" stroke-miterlimit="10" stroke-linecap="round" stroke-linejoin="round"/>
<path d="M117.251 147.22C117.652 147.143 118.037 147.057 118.388 146.964" stroke="#F6C90E" stroke-miterlimit="10" stroke-linecap="round" stroke-linejoin="round"/>
<path d="M113.18 147.71C113.537 147.693 113.921 147.666 114.319 147.629" stroke="#F6C90E" stroke-miterlimit="10" stroke-linecap="round" stroke-linejoin="round"/>
<path d="M111.256 147.658C111.51 147.714 111.935 147.737 112.467 147.731" stroke="#F6C90E" stroke-miterlimit="10" stroke-linecap="round" stroke-linejoin="round"/>
<path d="M100.629 144.448C100.955 144.648 101.248 144.792 101.49 144.865" stroke="#F6C90E" stroke-miterlimit="10" stroke-linecap="round" stroke-linejoin="round"/>
<path d="M99.1777 143.396C99.4937 143.652 99.8021 143.889 100.095 144.096" stroke="#F6C90E" stroke-miterlimit="10" stroke-linecap="round" stroke-linejoin="round"/>
<path d="M96.1699 140.571C96.417 140.838 96.6891 141.118 96.9757 141.403" stroke="#F6C90E" stroke-miterlimit="10" stroke-linecap="round" stroke-linejoin="round"/>
<path d="M94.9307 139.026C95.0628 139.267 95.3292 139.618 95.6856 140.031" stroke="#F6C90E" stroke-miterlimit="10" stroke-linecap="round" stroke-linejoin="round"/>
<path d="M115.301 108.563L112.546 109.269C112.546 109.269 116.02 105.457 117.084 101.276" fill="white"/>
<path d="M115.301 108.563L112.546 109.269C112.546 109.269 116.02 105.457 117.084 101.276" stroke="#F6C90E" stroke-miterlimit="10" stroke-linecap="round" stroke-linejoin="round"/>
<path d="M119.132 109.662L121.095 111.72C121.095 111.72 120.169 106.647 121.483 102.537" fill="white"/>
<path d="M119.132 109.662L121.095 111.72C121.095 111.72 120.169 106.647 121.483 102.537" stroke="#F6C90E" stroke-miterlimit="10" stroke-linecap="round" stroke-linejoin="round"/>
<path d="M118.356 101.213C117.577 104.835 115.301 108.563 115.301 108.563L116.515 111.369L119.132 109.661C119.132 109.661 119.178 105.294 120.437 101.809" fill="white"/>
<path d="M118.356 101.213C117.577 104.835 115.301 108.563 115.301 108.563L116.515 111.369L119.132 109.661C119.132 109.661 119.178 105.294 120.437 101.809" stroke="#F6C90E" stroke-miterlimit="10" stroke-linecap="round" stroke-linejoin="round"/>
</svg>
