<svg width="232" height="270" viewBox="0 0 232 270" fill="none" xmlns="http://www.w3.org/2000/svg">
<path d="M207.918 101.28L105.441 238.235C99.2725 246.488 88.8735 248.574 82.2162 242.904L24.6381 193.898C17.9813 188.241 17.5868 176.956 23.7612 168.708L99.5892 67.3755L114.356 47.6306L126.239 31.7545C132.401 23.5092 142.806 21.4156 149.463 27.0855L207.041 76.0918C213.693 81.7555 214.093 93.0326 207.918 101.28Z" fill="#F6C90E"/>
<path d="M64.9048 213.989C62.3484 217.406 58.0395 218.273 55.2819 215.925C52.5237 213.577 52.3604 208.904 54.9173 205.488C57.4738 202.071 61.7826 201.204 64.5403 203.552C67.2984 205.899 67.4618 210.572 64.9048 213.989Z" fill="#324134"/>
<path d="M114.356 47.6295L99.5888 67.3744C99.5335 67.3283 99.4722 67.2893 99.417 67.2432C98.616 66.5744 98.5593 65.2218 99.2894 64.2321L111.315 47.9333C112.045 46.943 113.294 46.6814 114.094 47.3499C114.193 47.4312 114.28 47.5288 114.356 47.6295Z" fill="#47525D"/>
<path d="M99.0523 68.0904L84.2864 87.8228C84.2312 87.7767 84.1446 87.7248 84.0889 87.6783C83.2879 87.0094 83.2311 85.6568 83.9613 84.6671L95.9865 68.3683C96.7171 67.378 97.9656 67.1165 98.766 67.7849C98.8652 67.8667 98.977 67.9897 99.0523 68.0904Z" fill="#47525D"/>
<path d="M173.97 146.647L188.776 126.86C188.827 126.904 188.93 126.989 188.981 127.032C189.726 127.654 189.738 128.969 189.008 129.959L176.983 146.257C176.252 147.248 175.049 147.547 174.304 146.925C174.212 146.849 174.039 146.742 173.97 146.647Z" fill="#47525D"/>
<path d="M178.402 64.9816L164.677 53.5063C164.47 53.3338 164.15 53.4009 163.962 53.6557C163.774 53.9112 163.788 54.2577 163.994 54.4298L177.72 65.9051C177.926 66.0777 178.246 66.0105 178.434 65.7557C178.623 65.5012 178.609 65.1542 178.402 64.9816Z" fill="#47525D"/>
<path d="M203.678 95.6311L132.146 34.7427L31.1438 169.716L102.676 230.605L203.678 95.6311Z" fill="white"/>
<path d="M137.473 47.523L136.357 46.5627L134.652 48.8228L135.768 49.783L137.473 47.523Z" fill="#324134"/>
<path d="M139.675 48.2685L138.297 47.082L136.059 50.0479L137.437 51.2345L139.675 48.2685Z" fill="#324134"/>
<path d="M141.8 48.979L140.422 47.7925L137.612 51.5163L138.991 52.7028L141.8 48.979Z" fill="#324134"/>
<path d="M143.9 49.7121L142.521 48.5256L139.15 52.9942L140.528 54.1808L143.9 49.7121Z" fill="#324134"/>
<path d="M192.663 92.5306L192.199 92.1428L192.839 91.2755L186.389 85.8829L183.722 89.4945L190.172 94.8871L190.86 93.956L191.324 94.3439L192.663 92.5306Z" fill="#324134"/>
<path d="M122.512 74.2176C122.801 73.8425 123.14 73.6526 123.53 73.6479C123.925 73.6475 124.339 73.8355 124.771 74.2118C125.204 74.5882 125.519 74.942 125.718 75.2734L125.169 75.9867C124.983 75.6394 124.696 75.2973 124.309 74.9604C123.841 74.5534 123.467 74.5322 123.186 74.8967L122.948 75.2058C122.818 75.3748 122.745 75.5358 122.728 75.6887C122.72 75.8407 122.76 76.0343 122.848 76.2694L123.326 77.5459C123.555 78.1329 123.488 78.6614 123.126 79.1316L122.785 79.5754C122.488 79.9611 122.13 80.148 121.711 80.1362C121.296 80.119 120.854 79.907 120.387 79.5C119.924 79.0974 119.594 78.7181 119.398 78.3621L119.947 77.6489C120.181 78.0645 120.482 78.432 120.849 78.7515C121.398 79.2285 121.822 79.2715 122.123 78.8805L122.33 78.6111C122.452 78.4526 122.518 78.307 122.528 78.1743C122.542 78.0364 122.506 77.8595 122.42 77.6437L121.946 76.4106C121.693 75.7675 121.76 75.195 122.146 74.6931L122.512 74.2176ZM124.72 83.204L125.538 81.5347L124.271 80.4319L122.894 81.6155L122.2 81.0116L127.451 76.6101L128.447 77.4765L125.414 83.8079L124.72 83.204ZM124.886 79.895L125.904 80.7812L127.398 77.7275L124.886 79.895ZM130.123 78.9346L132.386 80.9038L131.88 81.5616L130.333 80.2159L128.943 82.0228L130.406 83.2962L129.894 83.9619L128.431 82.6885L126.704 84.9312L125.988 84.3076L130.123 78.9346ZM132.989 81.4282L135.32 83.4565L134.814 84.1142L133.192 82.703L131.905 84.3751L133.315 85.6026L132.809 86.2603L131.399 85.0329L130.063 86.7684L131.685 88.1797L131.185 88.8295L128.854 86.8012L132.989 81.4282ZM138.294 86.0447L137.788 86.7024L136.815 85.8557L133.186 90.571L132.469 89.9474L136.098 85.2321L135.125 84.3853L135.631 83.7275L138.294 86.0447ZM136.197 93.1911L135.481 92.5675L136.841 90.8003L138.371 86.1114L139.103 86.7481L138.557 88.3902C138.347 89.0014 138.109 89.6372 137.845 90.2977C138.384 89.9025 138.921 89.5271 139.455 89.1714L140.86 88.2775L141.577 88.9011L137.557 91.4239L136.197 93.1911ZM144.412 93.4851C144.725 93.0783 144.681 92.6998 144.278 92.3497L143.682 91.8312L141.907 94.1373L142.503 94.6559C142.906 95.0059 143.265 94.9749 143.583 94.5628L144.412 93.4851ZM143.479 90.5564L144.852 91.751C145.255 92.1011 145.48 92.4737 145.529 92.8688C145.582 93.2683 145.463 93.6583 145.17 94.0387L144.243 95.2433C143.95 95.6237 143.614 95.8254 143.235 95.8486C142.862 95.8761 142.474 95.7149 142.071 95.3648L141.407 94.7871L140.053 96.5464L139.344 95.9294L143.479 90.5564ZM144.876 100.742L145.694 99.0731L144.427 97.9704L143.05 99.154L142.356 98.5501L147.608 94.1485L148.603 95.015L145.57 101.346L144.876 100.742ZM145.042 97.4335L146.06 98.3196L147.554 95.266L145.042 97.4335ZM149.129 97.3779C149.418 97.0028 149.757 96.8129 150.147 96.8081C150.542 96.8077 150.956 96.9957 151.388 97.3721C151.821 97.7484 152.136 98.1023 152.335 98.4337L151.786 99.1469C151.6 98.7997 151.313 98.4576 150.926 98.1206C150.458 97.7136 150.084 97.6924 149.803 98.057L149.565 98.366C149.435 98.5351 149.362 98.6961 149.345 98.849C149.337 99.001 149.377 99.1945 149.465 99.4297L149.943 100.706C150.172 101.293 150.105 101.822 149.743 102.292L149.402 102.736C149.105 103.121 148.747 103.308 148.328 103.296C147.913 103.279 147.471 103.067 147.004 102.66C146.541 102.258 146.212 101.878 146.015 101.522L146.564 100.809C146.799 101.225 147.099 101.592 147.466 101.912C148.015 102.389 148.439 102.432 148.74 102.041L148.947 101.771C149.069 101.613 149.135 101.467 149.145 101.335C149.159 101.197 149.123 101.02 149.037 100.804L148.563 99.5709C148.31 98.9278 148.377 98.3553 148.763 97.8534L149.129 97.3779ZM152.172 100.025C152.461 99.6502 152.8 99.4603 153.19 99.4556C153.585 99.4552 153.998 99.6432 154.431 100.02C154.863 100.396 155.179 100.75 155.377 101.081L154.828 101.794C154.642 101.447 154.355 101.105 153.968 100.768C153.501 100.361 153.126 100.34 152.846 100.704L152.608 101.013C152.478 101.183 152.404 101.344 152.387 101.496C152.38 101.648 152.42 101.842 152.507 102.077L152.986 103.354C153.214 103.941 153.148 104.469 152.786 104.939L152.444 105.383C152.148 105.769 151.79 105.956 151.37 105.944C150.955 105.927 150.514 105.715 150.046 105.308C149.584 104.905 149.254 104.526 149.058 104.17L149.607 103.457C149.841 103.872 150.142 104.24 150.509 104.559C151.057 105.036 151.482 105.079 151.783 104.688L151.99 104.419C152.112 104.26 152.178 104.115 152.188 103.982C152.201 103.844 152.165 103.667 152.079 103.451L151.605 102.218C151.353 101.575 151.42 101.003 151.806 100.501L152.172 100.025ZM157.297 104.697C157.61 104.29 157.565 103.911 157.163 103.561L156.567 103.043L154.792 105.349L155.388 105.867C155.791 106.217 156.15 106.186 156.468 105.774L157.297 104.697ZM156.364 101.768L157.737 102.963C158.14 103.313 158.365 103.685 158.414 104.08C158.467 104.48 158.348 104.87 158.055 105.25L157.128 106.455C156.835 106.835 156.499 107.037 156.12 107.06C155.747 107.088 155.358 106.926 154.956 106.576L154.292 105.999L152.938 107.758L152.229 107.141L156.364 101.768ZM160.728 107.656C161.062 107.223 161.01 106.816 160.572 106.435C160.135 106.054 159.749 106.08 159.416 106.514L157.208 109.383C156.87 109.821 156.921 110.231 157.358 110.611C157.796 110.992 158.183 110.963 158.521 110.525L160.728 107.656ZM158.725 105.873C159.03 105.477 159.387 105.258 159.796 105.217C160.211 105.181 160.642 105.357 161.089 105.747C161.542 106.141 161.79 106.56 161.835 107.004C161.883 107.443 161.757 107.858 161.456 108.249L159.205 111.173C158.904 111.564 158.547 111.778 158.133 111.815C157.718 111.851 157.287 111.674 156.84 111.285C156.392 110.895 156.144 110.481 156.096 110.042C156.047 109.603 156.174 109.188 156.474 108.797L158.725 105.873ZM161.444 111.666L159.834 113.758L159.125 113.141L163.26 107.768L164.633 108.963C165.035 109.313 165.261 109.685 165.309 110.08C165.363 110.48 165.245 110.867 164.957 111.242L164.298 112.098C163.847 112.685 163.342 112.876 162.785 112.673L161.916 115.57L161.131 114.887L162.01 112.158L161.444 111.666ZM163.469 109.035L161.926 111.04L162.529 111.565C162.741 111.749 162.93 111.83 163.098 111.808C163.271 111.791 163.436 111.679 163.595 111.473L164.211 110.673C164.516 110.277 164.47 109.906 164.072 109.56L163.469 109.035ZM169.015 112.775L168.509 113.433L167.535 112.586L163.906 117.302L163.19 116.678L166.819 111.963L165.846 111.116L166.352 110.458L169.015 112.775Z" fill="#F6C90E"/>
<path d="M154.195 126.109L114.769 91.8359L82.9249 133.254L122.351 167.526L154.195 126.109Z" stroke="#324134" stroke-miterlimit="10"/>
<path d="M122.387 102.891L115.399 96.8167L109.755 104.158L116.743 110.232L122.387 102.891Z" stroke="#324134" stroke-width="3" stroke-miterlimit="10"/>
<path d="M118.168 103.314L115.848 101.297L113.974 103.735L116.294 105.751L118.168 103.314Z" fill="#324134"/>
<path d="M96.0427 132.064L93.7227 130.047L91.8488 132.484L94.1689 134.501L96.0427 132.064Z" fill="#324134"/>
<path d="M100.262 131.641L93.2744 125.566L87.6304 132.907L94.6183 138.982L100.262 131.641Z" stroke="#324134" stroke-width="3" stroke-miterlimit="10"/>
<path d="M123.411 155.878L121.091 153.861L119.217 156.298L121.537 158.315L123.411 155.878Z" fill="#324134"/>
<path d="M127.63 155.455L120.643 149.38L114.999 156.721L121.987 162.796L127.63 155.455Z" stroke="#324134" stroke-width="3" stroke-miterlimit="10"/>
<path d="M145.537 127.127L143.217 125.11L141.343 127.548L143.663 129.564L145.537 127.127Z" fill="#324134"/>
<path d="M149.756 126.704L142.769 120.63L137.125 127.971L144.112 134.045L149.756 126.704Z" stroke="#324134" stroke-width="3" stroke-miterlimit="10"/>
<path d="M127.51 106.305L124.578 103.757L116.099 114.785L119.03 117.333L127.51 106.305Z" fill="#324134"/>
<path d="M126.41 117.628L118.917 111.115L116.095 114.785L123.588 121.298L126.41 117.628Z" fill="#324134"/>
<path d="M112.1 109.232L107.763 105.461L104.259 110.018L108.597 113.788L112.1 109.232Z" fill="#324134"/>
<path d="M111.638 127.656L109.973 126.208L106.476 130.756L108.141 132.204L111.638 127.656Z" fill="#324134"/>
<path d="M103.703 130.852L105.049 129.103L100.721 125.338L99.3755 127.087L103.703 130.852Z" fill="#324134"/>
<path d="M104.923 112.763L103.258 111.315L99.7613 115.863L101.427 117.31L104.923 112.763Z" fill="#324134"/>
<path d="M124.632 129.912L120.887 126.656L119.939 127.889L123.684 131.145L124.632 129.912Z" fill="#324134"/>
<path d="M119.963 127.858L116.218 124.602L115.27 125.835L119.015 129.091L119.963 127.858Z" fill="#324134"/>
<path d="M133.469 118.429L129.724 115.174L127.839 117.625L131.584 120.881L133.469 118.429Z" fill="#324134"/>
<path d="M140.039 117.204L129.549 108.086L126.353 112.243L136.843 121.362L140.039 117.204Z" fill="#324134"/>
<path d="M133.989 127.86L131.991 126.123L123.126 137.653L125.124 139.39L133.989 127.86Z" fill="#324134"/>
<path d="M123.124 137.649L117.881 133.091L117.208 133.966L122.452 138.524L123.124 137.649Z" fill="#324134"/>
<path d="M101.763 120.474L98.4346 117.581L94.2655 123.003L97.5943 125.897L101.763 120.474Z" fill="#324134"/>
<path d="M106.902 137.421L103.572 134.526L101.687 136.978L105.017 139.873L106.902 137.421Z" fill="#324134"/>
<path d="M112.814 134.615L110.564 132.66L105.018 139.875L107.267 141.83L112.814 134.615Z" fill="#324134"/>
<path d="M131.606 151.664L121.03 142.471L118.878 145.27L129.454 154.463L131.606 151.664Z" fill="#324134"/>
<path d="M133.343 143.087L129.849 140.049L125.201 146.094L128.695 149.131L133.343 143.087Z" fill="#324134"/>
<path d="M111.636 116.433L108.594 113.788L107.46 115.263L110.502 117.908L111.636 116.433Z" fill="#324134"/>
<path d="M105.3 122.139L99.0859 116.737L98.428 117.593L104.642 122.995L105.3 122.139Z" fill="#324134"/>
<path d="M118.074 128.274L116.207 126.651L114.699 128.612L116.566 130.235L118.074 128.274Z" fill="#324134"/>
<path d="M136.554 130.731L134.687 129.108L133.178 131.07L135.046 132.693L136.554 130.731Z" fill="#324134"/>
<path d="M113.28 145.823L111.413 144.2L109.905 146.161L111.772 147.784L113.28 145.823Z" fill="#324134"/>
<path d="M117.509 136.642L113.764 133.386L112.816 134.619L116.561 137.874L117.509 136.642Z" fill="#324134"/>
<path d="M112.922 142.238L111.055 140.615L109.547 142.576L111.414 144.199L112.922 142.238Z" fill="#324134"/>
<path d="M143.631 136.04L141.764 134.417L140.256 136.378L142.123 138.001L143.631 136.04Z" fill="#324134"/>
<path d="M140.28 136.345L138.413 134.722L136.905 136.683L138.772 138.306L140.28 136.345Z" fill="#324134"/>
<path d="M112.871 124.349L111.004 122.726L109.496 124.687L111.363 126.31L112.871 124.349Z" fill="#324134"/>
<path d="M112.513 120.764L110.646 119.141L109.137 121.103L111.005 122.726L112.513 120.764Z" fill="#324134"/>
<path d="M109.138 121.1L107.271 119.477L105.762 121.439L107.63 123.062L109.138 121.1Z" fill="#324134"/>
<path d="M99.7565 141.301L101.623 142.925L103.132 140.964L101.266 139.34L99.7565 141.301Z" fill="#324134"/>
<path d="M100.115 144.885L101.981 146.509L103.49 144.548L101.624 142.924L100.115 144.885Z" fill="#324134"/>
<path d="M103.49 144.549L105.356 146.173L106.865 144.212L104.999 142.588L103.49 144.549Z" fill="#324134"/>
<path d="M113.978 152.851L107.674 147.37L105.787 149.824L112.092 155.305L113.978 152.851Z" fill="#324134"/>
<path d="M116.715 149.294L114.92 147.734L112.184 151.292L113.979 152.853L116.715 149.294Z" fill="#324134"/>
<path d="M124.897 122.63L126.764 124.254L128.273 122.294L126.406 120.67L124.897 122.63Z" fill="#324134"/>
<path d="M125.279 126.183L127.146 127.807L128.655 125.846L126.788 124.222L125.279 126.183Z" fill="#324134"/>
<path d="M136.822 144.668L135.156 143.22L131.66 147.768L133.325 149.216L136.822 144.668Z" fill="#324134"/>
<path d="M122.552 123.806L115.044 117.28L113.499 119.289L121.007 125.816L122.552 123.806Z" fill="#324134"/>
<path d="M135.142 138.118L132.582 135.892L130.514 138.582L133.074 140.807L135.142 138.118Z" fill="#324134"/>
<path d="M119.549 141.719L117.685 140.099L113.653 145.342L115.518 146.963L119.549 141.719Z" fill="#324134"/>
<path d="M97.4098 173.888C93.9755 178.351 87.747 178.972 83.4984 175.276C79.2499 171.58 78.5904 164.965 82.0248 160.502C85.4591 156.039 91.6876 155.418 95.937 159.115C100.185 162.81 100.844 169.425 97.4098 173.888Z" stroke="#FFCE00" stroke-width="2" stroke-miterlimit="10" stroke-linecap="round" stroke-linejoin="round"/>
<path d="M84.8425 164.361L84.851 169.127L96.7854 167.175" stroke="#FFCE00" stroke-width="2" stroke-miterlimit="10" stroke-linecap="round" stroke-linejoin="round"/>
</svg>
