<svg width="109" height="84" viewBox="0 0 109 84" fill="none" xmlns="http://www.w3.org/2000/svg">
<path d="M108.269 83.1331C109.597 81.4851 104.431 79.1237 97.1634 74.4672C90.069 69.9312 23.5426 29.6281 18.756 26.6035C18.2236 27.0857 17.6736 27.537 17.1104 27.962C18.699 26.712 20.1752 25.2291 21.4995 23.5868C23.1981 21.4801 24.4853 19.2134 25.3612 16.9309C27.8206 10.5303 27.0245 4.0014 22.8126 0.473967L0.101282 28.6488L4.07185 31.8477L4.04973 31.875L5.43946 32.995L5.45206 32.979C6.53333 33.8363 8.47188 35.159 10.1845 35.2516C13.7739 35.4572 15.2094 35.1396 15.2094 35.1396C15.2094 35.1396 19.2896 36.5499 24.8671 38.7823L24.8265 38.8327L26.5783 39.5171L26.6019 39.4879C32.4749 41.8927 39.5923 45.0711 45.3472 48.448C46.2617 48.9845 47.3513 49.6284 48.612 50.3682C48.5807 50.3992 48.5499 50.4305 48.5188 50.4609L50.8102 51.7582C50.8265 51.7326 50.8426 51.7063 50.8584 51.6813C58.8413 56.3801 71.3188 63.7464 83.3387 70.9406C83.3212 70.9585 83.3025 70.9784 83.2842 70.9968L85.3715 72.2104C85.3769 72.1961 85.3814 72.1822 85.3916 72.1692C97.7824 79.5996 106.941 84.781 108.269 83.1331Z" fill="#324134"/>
</svg>
