<svg width="11" height="11" viewBox="0 0 11 11" fill="none" xmlns="http://www.w3.org/2000/svg">
<path d="M4.24753 10.045C3.53554 9.86752 2.88294 9.54263 2.30815 9.07966C0.144467 7.33646 -0.197645 4.15843 1.5458 1.99495C2.7736 0.472385 4.79348 -0.205698 6.69143 0.267387C7.40372 0.444934 8.05691 0.76998 8.63246 1.23378C9.68033 2.07795 10.3367 3.28001 10.4806 4.61794C10.6245 5.95617 10.2385 7.27006 9.39401 8.31795C8.16711 9.84075 6.14698 10.5185 4.24753 10.045ZM6.31754 1.76789C5.00161 1.43988 3.60178 1.9098 2.75056 2.96557C1.54233 4.46465 1.77916 6.66754 3.27864 7.87545C3.6777 8.19676 4.12946 8.42186 4.62173 8.54457C5.93886 8.87288 7.33899 8.40304 8.18976 7.34779C8.77543 6.6217 9.04286 5.71047 8.94316 4.78326C8.84354 3.85576 8.3884 3.02291 7.66204 2.4377C7.26238 2.11623 6.81041 1.89075 6.31754 1.76789Z" fill="#F6C90E"/>
</svg>
