<svg width="82" height="80" viewBox="0 0 82 80" fill="none" xmlns="http://www.w3.org/2000/svg">
<path d="M38.5055 0.702301C38.3671 0.714886 37.9455 0.758926 37.568 0.790386C34.1578 1.12386 30.7287 2.38223 27.7779 4.38305C20.926 9.02645 17.3396 17.1493 18.5288 25.3413C19.265 30.3874 21.7188 34.8923 25.6323 38.3969C28.4888 40.9514 32.2828 42.7823 36.1146 43.443C37.4988 43.6884 38.1091 43.7324 39.8583 43.7324C41.6074 43.7324 42.2177 43.6884 43.6019 43.443C51.2654 42.1154 57.7586 36.5471 60.2565 29.1667C62.4775 22.6043 61.4457 15.4505 57.4755 9.81923C53.9017 4.76056 48.4341 1.52654 42.2177 0.790386C41.6389 0.721176 38.9585 0.658257 38.5055 0.702301Z" fill="white"/>
<path d="M54.7381 42.153C51.7306 44.4369 47.9114 46.0917 44.1237 46.746C42.5696 47.0166 41.9341 47.0669 39.8578 47.0669C37.8507 47.0669 37.5676 47.048 36.0072 46.8089C32.3201 46.2553 28.6394 44.7578 25.5123 42.5556L24.7951 42.046L24.1281 42.153C23.7632 42.2159 22.9893 42.392 22.3979 42.5368C17.3203 43.8203 12.7839 46.4126 9.05909 50.1499C4.49119 54.7304 1.6976 60.563 0.898532 67.1632C0.716068 68.6606 0.697192 71.8254 0.867073 73.0146C1.20054 75.3929 1.76052 76.7205 2.88047 77.7838C3.95638 78.8094 5.52935 79.2561 7.7378 79.168C9.43031 79.0988 11.0914 78.822 15.4768 77.8593C20.6173 76.7331 22.9956 76.3241 26.1101 76.0284C27.3999 75.9089 54.5808 75.9089 55.8706 76.0284C58.9851 76.3241 61.3634 76.7331 66.5039 77.8593C70.8893 78.822 72.5504 79.0988 74.2429 79.168C75.841 79.231 76.9987 79.0359 78.0495 78.52C79.1317 77.9915 80.0314 76.9218 80.5033 75.6068C80.9689 74.3296 81.1828 72.9643 81.2395 70.976C81.4534 63.237 78.4018 55.6301 72.8587 50.087C68.4103 45.6387 62.7413 42.8136 56.5187 41.9453C55.2226 41.7629 55.254 41.7566 54.7381 42.153Z" fill="white"/>
</svg>
